<svg xmlns="http://www.w3.org/2000/svg" xmlns:xlink="http://www.w3.org/1999/xlink" width="150" zoomAndPan="magnify" viewBox="0 0 112.5 112.499997" height="150" preserveAspectRatio="xMidYMid meet" version="1.0"><defs><clipPath id="5d7df5822b"><path d="M 101 37 L 106.65625 37 L 106.65625 75 L 101 75 Z M 101 37 " clip-rule="nonzero"/></clipPath><clipPath id="3a740e5721"><path d="M 6.15625 37 L 12 37 L 12 75 L 6.15625 75 Z M 6.15625 37 " clip-rule="nonzero"/></clipPath><clipPath id="59cacec40d"><path d="M 37 6.15625 L 75 6.15625 L 75 12 L 37 12 Z M 37 6.15625 " clip-rule="nonzero"/></clipPath><clipPath id="916f86777a"><path d="M 22 90 L 75 90 L 75 106.65625 L 22 106.65625 Z M 22 90 " clip-rule="nonzero"/></clipPath></defs><path fill="#ffffff" d="M 101.363281 37.886719 L 96.070312 37.886719 L 96.070312 27.304688 L 90.78125 27.304688 L 90.78125 22.015625 L 85.492188 22.015625 L 85.492188 16.726562 L 74.914062 16.726562 L 74.914062 11.4375 L 37.890625 11.4375 L 37.890625 16.726562 L 27.308594 16.726562 L 27.308594 22.015625 L 22.019531 22.015625 L 22.019531 27.304688 L 16.730469 27.304688 L 16.730469 37.886719 L 11.441406 37.886719 L 11.441406 74.914062 L 16.730469 74.914062 L 16.730469 85.492188 L 22.019531 85.492188 L 22.019531 90.78125 L 27.308594 90.78125 L 27.308594 96.070312 L 37.886719 96.070312 L 37.886719 101.359375 L 74.914062 101.359375 L 74.914062 96.070312 L 85.492188 96.070312 L 85.492188 90.78125 L 90.78125 90.78125 L 90.78125 85.492188 L 96.070312 85.492188 L 96.070312 74.914062 L 101.363281 74.914062 Z M 101.363281 37.886719 " fill-opacity="1" fill-rule="nonzero"/><path fill="#5baa07" d="M 48.46875 80.203125 L 48.46875 74.910156 L 53.757812 74.910156 L 53.757812 69.621094 L 59.046875 69.621094 L 59.046875 64.332031 L 64.335938 64.332031 L 64.335938 59.042969 L 69.625 59.042969 L 69.625 53.753906 L 74.914062 53.753906 L 74.914062 48.464844 L 80.203125 48.464844 L 80.203125 43.175781 L 85.492188 43.175781 L 85.492188 32.597656 L 74.914062 32.597656 L 74.914062 37.886719 L 69.625 37.886719 L 69.625 43.175781 L 64.335938 43.175781 L 64.335938 48.464844 L 59.046875 48.464844 L 59.046875 53.753906 L 53.757812 53.753906 L 53.757812 59.042969 L 48.46875 59.042969 L 48.46875 64.332031 L 43.175781 64.332031 L 43.175781 59.042969 L 37.886719 59.042969 L 37.886719 53.753906 L 27.308594 53.753906 L 27.308594 64.332031 L 32.597656 64.332031 L 32.597656 69.621094 L 37.886719 69.621094 L 37.886719 74.910156 L 43.175781 74.910156 L 43.175781 80.203125 Z M 48.46875 80.203125 " fill-opacity="1" fill-rule="nonzero"/><g clip-path="url(#5d7df5822b)"><path fill="#5baa07" d="M 101.363281 37.886719 L 106.652344 37.886719 L 106.652344 74.910156 L 101.363281 74.910156 Z M 101.363281 37.886719 " fill-opacity="1" fill-rule="nonzero"/></g><path fill="#5baa07" d="M 96.070312 27.304688 L 101.363281 27.304688 L 101.363281 37.886719 L 96.070312 37.886719 Z M 96.070312 27.304688 " fill-opacity="1" fill-rule="nonzero"/><path fill="#5baa07" d="M 90.78125 22.015625 L 96.070312 22.015625 L 96.070312 27.304688 L 90.78125 27.304688 Z M 90.78125 22.015625 " fill-opacity="1" fill-rule="nonzero"/><path fill="#5baa07" d="M 85.492188 16.726562 L 90.78125 16.726562 L 90.78125 22.015625 L 85.492188 22.015625 Z M 85.492188 16.726562 " fill-opacity="1" fill-rule="nonzero"/><path fill="#5baa07" d="M 74.917969 11.4375 L 85.492188 11.4375 L 85.492188 16.726562 L 74.917969 16.726562 Z M 74.917969 11.4375 " fill-opacity="1" fill-rule="nonzero"/><g clip-path="url(#3a740e5721)"><path fill="#5baa07" d="M 6.152344 37.886719 L 11.441406 37.886719 L 11.441406 74.910156 L 6.152344 74.910156 Z M 6.152344 37.886719 " fill-opacity="1" fill-rule="nonzero"/></g><path fill="#5baa07" d="M 11.441406 27.304688 L 16.730469 27.304688 L 16.730469 37.886719 L 11.441406 37.886719 Z M 11.441406 27.304688 " fill-opacity="1" fill-rule="nonzero"/><path fill="#5baa07" d="M 16.730469 22.015625 L 22.019531 22.015625 L 22.019531 27.304688 L 16.730469 27.304688 Z M 16.730469 22.015625 " fill-opacity="1" fill-rule="nonzero"/><path fill="#5baa07" d="M 22.019531 16.726562 L 27.308594 16.726562 L 27.308594 22.015625 L 22.019531 22.015625 Z M 22.019531 16.726562 " fill-opacity="1" fill-rule="nonzero"/><path fill="#5baa07" d="M 27.308594 11.4375 L 37.886719 11.4375 L 37.886719 16.726562 L 27.308594 16.726562 Z M 27.308594 11.4375 " fill-opacity="1" fill-rule="nonzero"/><g clip-path="url(#59cacec40d)"><path fill="#5baa07" d="M 37.890625 6.148438 L 74.914062 6.148438 L 74.914062 11.441406 L 37.890625 11.441406 Z M 37.890625 6.148438 " fill-opacity="1" fill-rule="nonzero"/></g><path fill="#5baa07" d="M 11.441406 74.914062 L 16.730469 74.914062 L 16.730469 85.492188 L 11.441406 85.492188 Z M 11.441406 74.914062 " fill-opacity="1" fill-rule="nonzero"/><path fill="#5baa07" d="M 16.730469 85.492188 L 22.019531 85.492188 L 22.019531 90.78125 L 16.730469 90.78125 Z M 16.730469 85.492188 " fill-opacity="1" fill-rule="nonzero"/><g clip-path="url(#916f86777a)"><path fill="#5baa07" d="M 37.886719 96.070312 L 27.308594 96.070312 L 27.308594 90.78125 L 22.019531 90.78125 L 22.019531 96.070312 L 27.308594 96.070312 L 27.308594 101.359375 L 37.886719 101.359375 L 37.886719 106.648438 L 74.914062 106.648438 L 74.914062 101.359375 L 37.886719 101.359375 Z M 37.886719 96.070312 " fill-opacity="1" fill-rule="nonzero"/></g><path fill="#5baa07" d="M 96.070312 74.910156 L 101.363281 74.910156 L 101.363281 85.492188 L 96.070312 85.492188 Z M 96.070312 74.910156 " fill-opacity="1" fill-rule="nonzero"/><path fill="#5baa07" d="M 90.78125 85.492188 L 96.070312 85.492188 L 96.070312 90.78125 L 90.78125 90.78125 Z M 90.78125 85.492188 " fill-opacity="1" fill-rule="nonzero"/><path fill="#5baa07" d="M 85.492188 90.78125 L 90.78125 90.78125 L 90.78125 96.070312 L 85.492188 96.070312 Z M 85.492188 90.78125 " fill-opacity="1" fill-rule="nonzero"/><path fill="#5baa07" d="M 74.917969 96.070312 L 85.492188 96.070312 L 85.492188 101.359375 L 74.917969 101.359375 Z M 74.917969 96.070312 " fill-opacity="1" fill-rule="nonzero"/></svg>