<svg xmlns="http://www.w3.org/2000/svg" xmlns:xlink="http://www.w3.org/1999/xlink" width="150" zoomAndPan="magnify" viewBox="0 0 112.5 112.499997" height="150" preserveAspectRatio="xMidYMid meet" version="1.0"><defs><g/><clipPath id="c9a17b2c02"><path d="M 93 49 L 97.832031 49 L 97.832031 80 L 93 80 Z M 93 49 " clip-rule="nonzero"/></clipPath><clipPath id="3af0a16c16"><path d="M 14.582031 49 L 19 49 L 19 80 L 14.582031 80 Z M 14.582031 49 " clip-rule="nonzero"/></clipPath><clipPath id="807a4b9228"><path d="M 40 22.746094 L 72 22.746094 L 72 28 L 40 28 Z M 40 22.746094 " clip-rule="nonzero"/></clipPath><clipPath id="35468fe10e"><path d="M 27 92 L 72 92 L 72 105.996094 L 27 105.996094 Z M 27 92 " clip-rule="nonzero"/></clipPath></defs><path fill="#ffffff" d="M 93.445312 49.03125 L 89.0625 49.03125 L 89.0625 40.265625 L 84.683594 40.265625 L 84.683594 35.882812 L 80.300781 35.882812 L 80.300781 31.503906 L 71.539062 31.503906 L 71.539062 27.121094 L 40.867188 27.121094 L 40.867188 31.503906 L 32.101562 31.503906 L 32.101562 35.882812 L 27.722656 35.882812 L 27.722656 40.265625 L 23.339844 40.265625 L 23.339844 49.03125 L 18.957031 49.03125 L 18.957031 79.699219 L 23.339844 79.699219 L 23.339844 88.464844 L 27.722656 88.464844 L 27.722656 92.847656 L 32.101562 92.847656 L 32.101562 97.226562 L 40.863281 97.226562 L 40.863281 101.609375 L 71.535156 101.609375 L 71.535156 97.226562 L 80.300781 97.226562 L 80.300781 92.847656 L 84.683594 92.847656 L 84.683594 88.464844 L 89.0625 88.464844 L 89.0625 79.699219 L 93.445312 79.699219 Z M 93.445312 49.03125 " fill-opacity="1" fill-rule="nonzero"/><path fill="#5baa07" d="M 49.628906 84.082031 L 49.628906 79.699219 L 54.011719 79.699219 L 54.011719 75.320312 L 58.390625 75.320312 L 58.390625 70.9375 L 62.773438 70.9375 L 62.773438 66.554688 L 67.15625 66.554688 L 67.15625 62.175781 L 71.539062 62.175781 L 71.539062 57.792969 L 75.917969 57.792969 L 75.917969 53.410156 L 80.300781 53.410156 L 80.300781 44.648438 L 71.539062 44.648438 L 71.539062 49.03125 L 67.15625 49.03125 L 67.15625 53.410156 L 62.773438 53.410156 L 62.773438 57.792969 L 58.390625 57.792969 L 58.390625 62.175781 L 54.011719 62.175781 L 54.011719 66.554688 L 49.628906 66.554688 L 49.628906 70.9375 L 45.246094 70.9375 L 45.246094 66.554688 L 40.867188 66.554688 L 40.867188 62.175781 L 32.101562 62.175781 L 32.101562 70.9375 L 36.484375 70.9375 L 36.484375 75.320312 L 40.867188 75.320312 L 40.867188 79.699219 L 45.246094 79.699219 L 45.246094 84.082031 Z M 49.628906 84.082031 " fill-opacity="1" fill-rule="nonzero"/><g clip-path="url(#c9a17b2c02)"><path fill="#5baa07" d="M 93.445312 49.03125 L 97.828125 49.03125 L 97.828125 79.699219 L 93.445312 79.699219 Z M 93.445312 49.03125 " fill-opacity="1" fill-rule="nonzero"/></g><path fill="#5baa07" d="M 89.0625 40.265625 L 93.445312 40.265625 L 93.445312 49.03125 L 89.0625 49.03125 Z M 89.0625 40.265625 " fill-opacity="1" fill-rule="nonzero"/><path fill="#5baa07" d="M 84.683594 35.882812 L 89.0625 35.882812 L 89.0625 40.265625 L 84.683594 40.265625 Z M 84.683594 35.882812 " fill-opacity="1" fill-rule="nonzero"/><path fill="#5baa07" d="M 80.300781 31.503906 L 84.683594 31.503906 L 84.683594 35.882812 L 80.300781 35.882812 Z M 80.300781 31.503906 " fill-opacity="1" fill-rule="nonzero"/><path fill="#5baa07" d="M 71.539062 27.121094 L 80.300781 27.121094 L 80.300781 31.503906 L 71.539062 31.503906 Z M 71.539062 27.121094 " fill-opacity="1" fill-rule="nonzero"/><g clip-path="url(#3af0a16c16)"><path fill="#5baa07" d="M 14.578125 49.03125 L 18.957031 49.03125 L 18.957031 79.699219 L 14.578125 79.699219 Z M 14.578125 49.03125 " fill-opacity="1" fill-rule="nonzero"/></g><path fill="#5baa07" d="M 18.957031 40.265625 L 23.339844 40.265625 L 23.339844 49.03125 L 18.957031 49.03125 Z M 18.957031 40.265625 " fill-opacity="1" fill-rule="nonzero"/><path fill="#5baa07" d="M 23.339844 35.882812 L 27.722656 35.882812 L 27.722656 40.265625 L 23.339844 40.265625 Z M 23.339844 35.882812 " fill-opacity="1" fill-rule="nonzero"/><path fill="#5baa07" d="M 27.722656 31.503906 L 32.101562 31.503906 L 32.101562 35.882812 L 27.722656 35.882812 Z M 27.722656 31.503906 " fill-opacity="1" fill-rule="nonzero"/><path fill="#5baa07" d="M 32.101562 27.121094 L 40.867188 27.121094 L 40.867188 31.503906 L 32.101562 31.503906 Z M 32.101562 27.121094 " fill-opacity="1" fill-rule="nonzero"/><g clip-path="url(#807a4b9228)"><path fill="#5baa07" d="M 40.867188 22.742188 L 71.539062 22.742188 L 71.539062 27.121094 L 40.867188 27.121094 Z M 40.867188 22.742188 " fill-opacity="1" fill-rule="nonzero"/></g><path fill="#5baa07" d="M 18.957031 79.699219 L 23.339844 79.699219 L 23.339844 88.464844 L 18.957031 88.464844 Z M 18.957031 79.699219 " fill-opacity="1" fill-rule="nonzero"/><path fill="#5baa07" d="M 23.339844 88.464844 L 27.722656 88.464844 L 27.722656 92.84375 L 23.339844 92.84375 Z M 23.339844 88.464844 " fill-opacity="1" fill-rule="nonzero"/><g clip-path="url(#35468fe10e)"><path fill="#5baa07" d="M 40.867188 97.226562 L 32.101562 97.226562 L 32.101562 92.84375 L 27.722656 92.84375 L 27.722656 97.226562 L 32.101562 97.226562 L 32.101562 101.609375 L 40.863281 101.609375 L 40.863281 105.988281 L 71.539062 105.988281 L 71.539062 101.605469 L 40.867188 101.605469 Z M 40.867188 97.226562 " fill-opacity="1" fill-rule="nonzero"/></g><path fill="#5baa07" d="M 89.0625 79.699219 L 93.445312 79.699219 L 93.445312 88.464844 L 89.0625 88.464844 Z M 89.0625 79.699219 " fill-opacity="1" fill-rule="nonzero"/><path fill="#5baa07" d="M 84.683594 88.464844 L 89.0625 88.464844 L 89.0625 92.84375 L 84.683594 92.84375 Z M 84.683594 88.464844 " fill-opacity="1" fill-rule="nonzero"/><path fill="#5baa07" d="M 80.300781 92.84375 L 84.683594 92.84375 L 84.683594 97.226562 L 80.300781 97.226562 Z M 80.300781 92.84375 " fill-opacity="1" fill-rule="nonzero"/><path fill="#5baa07" d="M 71.539062 97.226562 L 80.300781 97.226562 L 80.300781 101.609375 L 71.539062 101.609375 Z M 71.539062 97.226562 " fill-opacity="1" fill-rule="nonzero"/><g fill="#5baa07" fill-opacity="1"><g transform="translate(26.006248, 14.25)"><g><path d="M 0.839844 0 L 7.558594 0 L 7.558594 -1.679688 L 2.519531 -1.679688 L 2.519531 -6.71875 L 7.558594 -6.71875 L 7.558594 -8.398438 L 0.839844 -8.398438 Z M 7.558594 -1.679688 L 9.238281 -1.679688 L 9.238281 -6.71875 L 7.558594 -6.71875 Z M 7.558594 -1.679688 "/></g></g></g><g fill="#5baa07" fill-opacity="1"><g transform="translate(36.086272, 14.25)"><g><path d="M 7.558594 -1.679688 L 2.519531 -1.679688 L 2.519531 0 L 7.558594 0 Z M 0.839844 -1.679688 L 2.519531 -1.679688 L 2.519531 -6.71875 L 0.839844 -6.71875 Z M 2.519531 -6.71875 L 7.558594 -6.71875 L 7.558594 -8.398438 L 2.519531 -8.398438 Z M 7.558594 -1.679688 L 9.238281 -1.679688 L 9.238281 -6.71875 L 7.558594 -6.71875 Z M 7.558594 -1.679688 "/></g></g></g><g fill="#5baa07" fill-opacity="1"><g transform="translate(46.166296, 14.25)"><g><path d="M 7.558594 0 L 9.238281 0 L 9.238281 -8.398438 L 7.558594 -8.398438 L 7.558594 -3.359375 L 5.878906 -3.359375 L 5.878906 -1.679688 L 7.558594 -1.679688 Z M 0.839844 0 L 2.519531 0 L 2.519531 -5.039062 L 4.199219 -5.039062 L 4.199219 -6.71875 L 2.519531 -6.71875 L 2.519531 -8.398438 L 0.839844 -8.398438 Z M 4.199219 -3.359375 L 5.878906 -3.359375 L 5.878906 -5.039062 L 4.199219 -5.039062 Z M 4.199219 -3.359375 "/></g></g></g><g fill="#5baa07" fill-opacity="1"><g transform="translate(56.246319, 14.25)"><g><path d="M 0.839844 0 L 2.519531 0 L 2.519531 -1.679688 L 7.558594 -1.679688 L 7.558594 0 L 9.238281 0 L 9.238281 -6.71875 L 7.558594 -6.71875 L 7.558594 -3.359375 L 2.519531 -3.359375 L 2.519531 -6.71875 L 0.839844 -6.71875 Z M 2.519531 -6.71875 L 7.558594 -6.71875 L 7.558594 -8.398438 L 2.519531 -8.398438 Z M 2.519531 -6.71875 "/></g></g></g><g fill="#5baa07" fill-opacity="1"><g transform="translate(66.326343, 14.25)"><g><path d="M 4.199219 0 L 5.878906 0 L 5.878906 -6.71875 L 9.238281 -6.71875 L 9.238281 -8.398438 L 0.839844 -8.398438 L 0.839844 -6.71875 L 4.199219 -6.71875 Z M 4.199219 0 "/></g></g></g><g fill="#5baa07" fill-opacity="1"><g transform="translate(76.406367, 14.25)"><g><path d="M 0.839844 0 L 9.238281 0 L 9.238281 -1.679688 L 2.519531 -1.679688 L 2.519531 -3.359375 L 7.558594 -3.359375 L 7.558594 -5.039062 L 2.519531 -5.039062 L 2.519531 -6.71875 L 9.238281 -6.71875 L 9.238281 -8.398438 L 0.839844 -8.398438 Z M 0.839844 0 "/></g></g></g></svg>