<svg xmlns="http://www.w3.org/2000/svg" xmlns:xlink="http://www.w3.org/1999/xlink" width="644" zoomAndPan="magnify" viewBox="0 0 482.87997 30.000001" height="40" preserveAspectRatio="xMidYMid meet" version="1.0"><defs><clipPath id="2c17fb93a0"><path d="M 235 8.710938 L 248 8.710938 L 248 20.324219 L 235 20.324219 Z M 235 8.710938 " clip-rule="nonzero"/></clipPath><clipPath id="eda5418a0b"><path d="M 201.046875 12 L 207 12 L 207 19 L 201.046875 19 Z M 201.046875 12 " clip-rule="nonzero"/></clipPath><clipPath id="da60574feb"><path d="M 224 10 L 234 10 L 234 20.324219 L 224 20.324219 Z M 224 10 " clip-rule="nonzero"/></clipPath><clipPath id="5a34eefc66"><path d="M 249 10 L 259 10 L 259 20.324219 L 249 20.324219 Z M 249 10 " clip-rule="nonzero"/></clipPath><clipPath id="edba4b42d9"><path d="M 275 12 L 281.613281 12 L 281.613281 19 L 275 19 Z M 275 12 " clip-rule="nonzero"/></clipPath></defs><g clip-path="url(#2c17fb93a0)"><path fill="#000000" d="M 245.167969 10.664062 L 243.246094 10.664062 L 243.246094 8.742188 L 239.410156 8.742188 L 239.410156 10.664062 L 237.492188 10.664062 L 237.492188 12.589844 L 235.574219 12.589844 L 235.574219 16.433594 L 237.492188 16.433594 L 237.492188 18.359375 L 239.410156 18.359375 L 239.410156 20.28125 L 243.246094 20.28125 L 243.246094 18.359375 L 245.167969 18.359375 L 245.167969 16.433594 L 247.085938 16.433594 L 247.085938 12.589844 L 245.167969 12.589844 Z M 245.167969 10.664062 " fill-opacity="1" fill-rule="nonzero"/></g><g clip-path="url(#eda5418a0b)"><path fill="#000000" d="M 204.882812 12.589844 L 202.964844 12.589844 L 202.964844 14.511719 L 201.050781 14.511719 L 201.050781 16.433594 L 202.964844 16.433594 L 202.964844 18.359375 L 204.882812 18.359375 L 204.882812 16.433594 L 206.804688 16.433594 L 206.804688 14.511719 L 204.882812 14.511719 Z M 204.882812 12.589844 " fill-opacity="1" fill-rule="nonzero"/></g><path fill="#000000" d="M 212.558594 12.589844 L 210.640625 12.589844 L 210.640625 14.511719 L 208.722656 14.511719 L 208.722656 16.433594 L 210.640625 16.433594 L 210.640625 18.359375 L 212.558594 18.359375 L 212.558594 16.433594 L 214.476562 16.433594 L 214.476562 14.511719 L 212.558594 14.511719 Z M 212.558594 12.589844 " fill-opacity="1" fill-rule="nonzero"/><path fill="#000000" d="M 220.230469 12.589844 L 218.3125 12.589844 L 218.3125 14.511719 L 216.394531 14.511719 L 216.394531 16.433594 L 218.3125 16.433594 L 218.3125 18.359375 L 220.230469 18.359375 L 220.230469 16.433594 L 222.148438 16.433594 L 222.148438 14.511719 L 220.230469 14.511719 Z M 220.230469 12.589844 " fill-opacity="1" fill-rule="nonzero"/><g clip-path="url(#da60574feb)"><path fill="#000000" d="M 231.738281 12.589844 L 229.820312 12.589844 L 229.820312 10.664062 L 227.902344 10.664062 L 227.902344 12.589844 L 225.984375 12.589844 L 225.984375 14.511719 L 224.066406 14.511719 L 224.066406 16.433594 L 225.984375 16.433594 L 225.984375 18.359375 L 227.902344 18.359375 L 227.902344 20.28125 L 229.820312 20.28125 L 229.820312 18.359375 L 231.738281 18.359375 L 231.738281 16.433594 L 233.65625 16.433594 L 233.65625 14.511719 L 231.738281 14.511719 Z M 231.738281 12.589844 " fill-opacity="1" fill-rule="nonzero"/></g><g clip-path="url(#5a34eefc66)"><path fill="#000000" d="M 256.675781 12.589844 L 254.757812 12.589844 L 254.757812 10.664062 L 252.839844 10.664062 L 252.839844 12.589844 L 250.917969 12.589844 L 250.917969 14.511719 L 249 14.511719 L 249 16.433594 L 250.917969 16.433594 L 250.917969 18.359375 L 252.839844 18.359375 L 252.839844 20.28125 L 254.757812 20.28125 L 254.757812 18.359375 L 256.675781 18.359375 L 256.675781 16.433594 L 258.59375 16.433594 L 258.59375 14.511719 L 256.675781 14.511719 Z M 256.675781 12.589844 " fill-opacity="1" fill-rule="nonzero"/></g><path fill="#000000" d="M 264.347656 12.589844 L 262.429688 12.589844 L 262.429688 14.511719 L 260.511719 14.511719 L 260.511719 16.433594 L 262.429688 16.433594 L 262.429688 18.359375 L 264.347656 18.359375 L 264.347656 16.433594 L 266.265625 16.433594 L 266.265625 14.511719 L 264.347656 14.511719 Z M 264.347656 12.589844 " fill-opacity="1" fill-rule="nonzero"/><path fill="#000000" d="M 272.019531 12.589844 L 270.101562 12.589844 L 270.101562 14.511719 L 268.183594 14.511719 L 268.183594 16.433594 L 270.101562 16.433594 L 270.101562 18.359375 L 272.019531 18.359375 L 272.019531 16.433594 L 273.9375 16.433594 L 273.9375 14.511719 L 272.019531 14.511719 Z M 272.019531 12.589844 " fill-opacity="1" fill-rule="nonzero"/><g clip-path="url(#edba4b42d9)"><path fill="#000000" d="M 279.691406 14.511719 L 279.691406 12.589844 L 277.773438 12.589844 L 277.773438 14.511719 L 275.855469 14.511719 L 275.855469 16.433594 L 277.773438 16.433594 L 277.773438 18.359375 L 279.691406 18.359375 L 279.691406 16.433594 L 281.609375 16.433594 L 281.609375 14.511719 Z M 279.691406 14.511719 " fill-opacity="1" fill-rule="nonzero"/></g></svg>