<svg xmlns="http://www.w3.org/2000/svg" xmlns:xlink="http://www.w3.org/1999/xlink" width="644" zoomAndPan="magnify" viewBox="0 0 482.87997 30.000001" height="40" preserveAspectRatio="xMidYMid meet" version="1.0"><defs><clipPath id="bc998cd4a0"><path d="M 240 10.171875 L 243 10.171875 L 243 12 L 240 12 Z M 240 10.171875 " clip-rule="nonzero"/></clipPath><clipPath id="589e7af46e"><path d="M 202.375 13 L 205 13 L 205 16 L 202.375 16 Z M 202.375 13 " clip-rule="nonzero"/></clipPath><clipPath id="ae3c0844d3"><path d="M 279 13 L 280.761719 13 L 280.761719 16 L 279 16 Z M 279 13 " clip-rule="nonzero"/></clipPath><clipPath id="4fc9c33378"><path d="M 240 17 L 243 17 L 243 18.878906 L 240 18.878906 Z M 240 17 " clip-rule="nonzero"/></clipPath></defs><g clip-path="url(#bc998cd4a0)"><path fill="#000000" d="M 240.703125 10.171875 L 242.445312 10.171875 L 242.445312 11.914062 L 240.703125 11.914062 Z M 240.703125 10.171875 " fill-opacity="1" fill-rule="nonzero"/></g><path fill="#000000" d="M 204.121094 11.914062 L 205.859375 11.914062 L 205.859375 13.652344 L 204.121094 13.652344 Z M 204.121094 11.914062 " fill-opacity="1" fill-rule="nonzero"/><path fill="#000000" d="M 238.960938 11.914062 L 240.703125 11.914062 L 240.703125 13.652344 L 238.960938 13.652344 Z M 238.960938 11.914062 " fill-opacity="1" fill-rule="nonzero"/><path fill="#000000" d="M 242.445312 11.914062 L 244.183594 11.914062 L 244.183594 13.652344 L 242.445312 13.652344 Z M 242.445312 11.914062 " fill-opacity="1" fill-rule="nonzero"/><path fill="#000000" d="M 277.285156 11.914062 L 279.027344 11.914062 L 279.027344 13.652344 L 277.285156 13.652344 Z M 277.285156 11.914062 " fill-opacity="1" fill-rule="nonzero"/><g clip-path="url(#589e7af46e)"><path fill="#000000" d="M 202.375 13.65625 L 204.117188 13.65625 L 204.117188 15.394531 L 202.375 15.394531 Z M 202.375 13.65625 " fill-opacity="1" fill-rule="nonzero"/></g><path fill="#000000" d="M 237.21875 13.65625 L 205.859375 13.65625 L 205.859375 15.394531 L 238.960938 15.394531 L 238.960938 13.65625 Z M 237.21875 13.65625 " fill-opacity="1" fill-rule="nonzero"/><path fill="#000000" d="M 240.703125 13.65625 L 242.445312 13.65625 L 242.445312 15.394531 L 240.703125 15.394531 Z M 240.703125 13.65625 " fill-opacity="1" fill-rule="nonzero"/><path fill="#000000" d="M 275.542969 13.65625 L 244.183594 13.65625 L 244.183594 15.394531 L 277.285156 15.394531 L 277.285156 13.65625 Z M 275.542969 13.65625 " fill-opacity="1" fill-rule="nonzero"/><g clip-path="url(#ae3c0844d3)"><path fill="#000000" d="M 279.027344 13.65625 L 280.769531 13.65625 L 280.769531 15.394531 L 279.027344 15.394531 Z M 279.027344 13.65625 " fill-opacity="1" fill-rule="nonzero"/></g><path fill="#000000" d="M 204.121094 15.394531 L 205.859375 15.394531 L 205.859375 17.136719 L 204.121094 17.136719 Z M 204.121094 15.394531 " fill-opacity="1" fill-rule="nonzero"/><path fill="#000000" d="M 238.960938 15.394531 L 240.703125 15.394531 L 240.703125 17.136719 L 238.960938 17.136719 Z M 238.960938 15.394531 " fill-opacity="1" fill-rule="nonzero"/><path fill="#000000" d="M 242.445312 15.394531 L 244.183594 15.394531 L 244.183594 17.136719 L 242.445312 17.136719 Z M 242.445312 15.394531 " fill-opacity="1" fill-rule="nonzero"/><path fill="#000000" d="M 277.285156 15.394531 L 279.027344 15.394531 L 279.027344 17.136719 L 277.285156 17.136719 Z M 277.285156 15.394531 " fill-opacity="1" fill-rule="nonzero"/><g clip-path="url(#4fc9c33378)"><path fill="#000000" d="M 240.703125 17.136719 L 242.445312 17.136719 L 242.445312 18.878906 L 240.703125 18.878906 Z M 240.703125 17.136719 " fill-opacity="1" fill-rule="nonzero"/></g></svg>