<svg xmlns="http://www.w3.org/2000/svg" xmlns:xlink="http://www.w3.org/1999/xlink" width="644" zoomAndPan="magnify" viewBox="0 0 482.87997 30.000001" height="40" preserveAspectRatio="xMidYMid meet" version="1.0"><defs><clipPath id="ca5bdd11c6"><path d="M 164.019531 8.710938 L 318.617188 8.710938 L 318.617188 20.324219 L 164.019531 20.324219 Z M 164.019531 8.710938 " clip-rule="nonzero"/></clipPath></defs><g clip-path="url(#ca5bdd11c6)"><path fill="#000000" d="M 314.75 8.71875 L 307.019531 8.71875 L 307.019531 12.589844 L 303.15625 12.589844 L 303.15625 8.71875 L 299.289062 8.71875 L 299.289062 12.589844 L 183.347656 12.589844 L 183.347656 8.71875 L 179.484375 8.71875 L 179.484375 12.589844 L 175.617188 12.589844 L 175.617188 8.71875 L 164.023438 8.71875 L 164.023438 20.328125 L 175.617188 20.328125 L 175.617188 16.460938 L 179.484375 16.460938 L 179.484375 20.328125 L 183.347656 20.328125 L 183.347656 16.460938 L 299.289062 16.460938 L 299.289062 20.328125 L 303.15625 20.328125 L 303.15625 16.460938 L 307.019531 16.460938 L 307.019531 20.328125 L 318.613281 20.328125 L 318.613281 8.71875 Z M 167.890625 16.460938 L 167.890625 12.589844 L 171.753906 12.589844 L 171.753906 16.460938 Z M 314.75 16.460938 L 310.882812 16.460938 L 310.882812 12.589844 L 314.75 12.589844 Z M 314.75 16.460938 " fill-opacity="1" fill-rule="nonzero"/></g></svg>