<svg xmlns="http://www.w3.org/2000/svg" xmlns:xlink="http://www.w3.org/1999/xlink" width="644" zoomAndPan="magnify" viewBox="0 0 482.87997 30.000001" height="40" preserveAspectRatio="xMidYMid meet" version="1.0"><defs><clipPath id="0161e83294"><path d="M 239 14 L 255 14 L 255 22.492188 L 239 22.492188 Z M 239 14 " clip-rule="nonzero"/></clipPath><clipPath id="cfbbf9a706"><path d="M 205.332031 12 L 220 12 L 220 17 L 205.332031 17 Z M 205.332031 12 " clip-rule="nonzero"/></clipPath><clipPath id="573ae6866d"><path d="M 205.332031 12 L 211 12 L 211 17 L 205.332031 17 Z M 205.332031 12 " clip-rule="nonzero"/></clipPath><clipPath id="f1b94881b8"><path d="M 12 14 L 192 14 L 192 15.265625 L 12 15.265625 Z M 12 14 " clip-rule="nonzero"/></clipPath><clipPath id="3c7e08bfb9"><path d="M 284 14 L 464 14 L 464 15.265625 L 284 15.265625 Z M 284 14 " clip-rule="nonzero"/></clipPath></defs><path fill="#000000" d="M 223.828125 13.476562 C 223.828125 13.394531 223.777344 13.328125 223.71875 13.328125 C 223.589844 13.328125 223.507812 13.449219 223.566406 13.550781 C 223.648438 13.679688 223.828125 13.628906 223.828125 13.476562 Z M 223.828125 13.476562 " fill-opacity="1" fill-rule="nonzero"/><path fill="#000000" d="M 223.234375 13.699219 C 223.375 13.699219 223.4375 13.554688 223.339844 13.457031 C 223.265625 13.382812 223.085938 13.484375 223.085938 13.597656 C 223.085938 13.652344 223.152344 13.699219 223.234375 13.699219 Z M 223.234375 13.699219 " fill-opacity="1" fill-rule="nonzero"/><path fill="#000000" d="M 256.644531 14.074219 C 256.644531 14.265625 256.890625 14.242188 256.925781 14.050781 C 256.945312 13.960938 256.902344 13.921875 256.796875 13.921875 C 256.691406 13.921875 256.644531 13.96875 256.644531 14.074219 Z M 256.644531 14.074219 " fill-opacity="1" fill-rule="nonzero"/><path fill="#000000" d="M 222.90625 13.921875 C 223.03125 13.921875 223.050781 13.730469 222.933594 13.65625 C 222.828125 13.59375 222.6875 13.734375 222.75 13.839844 C 222.777344 13.886719 222.847656 13.921875 222.90625 13.921875 Z M 222.90625 13.921875 " fill-opacity="1" fill-rule="nonzero"/><path fill="#000000" d="M 256.71875 13.699219 C 256.71875 13.617188 256.671875 13.550781 256.617188 13.550781 C 256.503906 13.550781 256.40625 13.730469 256.476562 13.804688 C 256.574219 13.902344 256.71875 13.839844 256.71875 13.699219 Z M 256.71875 13.699219 " fill-opacity="1" fill-rule="nonzero"/><path fill="#000000" d="M 224.617188 14.246094 C 224.683594 14.3125 224.808594 14.265625 224.84375 14.15625 C 224.859375 14.109375 224.804688 14.070312 224.71875 14.070312 C 224.566406 14.070312 224.519531 14.148438 224.617188 14.246094 Z M 224.617188 14.246094 " fill-opacity="1" fill-rule="nonzero"/><path fill="#000000" d="M 224.269531 13.550781 C 224.269531 13.46875 224.226562 13.402344 224.171875 13.402344 C 224.03125 13.402344 223.976562 13.472656 224.023438 13.59375 C 224.085938 13.753906 224.269531 13.71875 224.269531 13.550781 Z M 224.269531 13.550781 " fill-opacity="1" fill-rule="nonzero"/><path fill="#000000" d="M 240.308594 15.441406 C 240.4375 15.285156 240.347656 15.109375 240.136719 15.109375 C 239.960938 15.109375 239.867188 15.230469 239.867188 15.449219 C 239.867188 15.589844 240.191406 15.585938 240.308594 15.441406 Z M 240.308594 15.441406 " fill-opacity="1" fill-rule="nonzero"/><path fill="#000000" d="M 255.449219 13.414062 C 255.464844 13.292969 255.433594 13.253906 255.320312 13.253906 C 255.167969 13.253906 255.105469 13.460938 255.21875 13.578125 C 255.304688 13.664062 255.425781 13.582031 255.449219 13.414062 Z M 255.449219 13.414062 " fill-opacity="1" fill-rule="nonzero"/><path fill="#000000" d="M 240.246094 13.648438 C 240.039062 13.519531 239.804688 13.777344 239.9375 13.992188 C 240.011719 14.113281 240.429688 14.027344 240.484375 13.878906 C 240.554688 13.703125 240.65625 13.757812 240.703125 13.992188 C 240.824219 14.601562 242.15625 14.691406 242.15625 13.699219 C 242.15625 13.238281 241.484375 12.921875 241.253906 13.273438 C 241.132812 13.460938 241.222656 13.808594 241.402344 13.835938 C 241.628906 13.867188 241.710938 13.636719 241.523438 13.5 C 241.367188 13.386719 241.496094 13.230469 241.683594 13.304688 C 242.054688 13.445312 242.011719 14.113281 241.621094 14.25 C 240.894531 14.503906 240.671875 13.984375 240.703125 12.074219 C 240.734375 10.148438 240.828125 9.917969 241.667969 9.660156 C 242.160156 9.507812 242.144531 9.460938 242.109375 10.898438 C 242.050781 13.167969 242.4375 13.921875 243.648438 13.921875 C 245.066406 13.921875 245.460938 12.542969 244.5625 10.707031 C 243.996094 9.542969 244.183594 8.667969 244.964844 8.839844 C 245.386719 8.933594 245.4375 9.570312 245.011719 9.492188 C 243.851562 9.269531 245.402344 12.320312 246.871094 13.148438 C 248.558594 14.097656 249.464844 14.355469 251.402344 14.417969 C 253.75 14.5 254.574219 14.152344 254.574219 13.097656 C 254.574219 12.671875 254.285156 12.226562 254 12.207031 C 253.375 12.167969 253.011719 12.492188 253.179688 12.941406 C 253.300781 13.269531 253.835938 13.285156 253.835938 12.964844 C 253.835938 12.769531 253.632812 12.613281 253.523438 12.722656 C 253.40625 12.839844 253.320312 12.832031 253.320312 12.699219 C 253.320312 12.269531 254.058594 12.296875 254.28125 12.738281 C 254.8125 13.78125 253.441406 14.484375 252.671875 13.566406 C 252.160156 12.957031 251.980469 12.578125 251.875 11.882812 C 251.75 11.070312 251.226562 10.433594 250.683594 10.433594 C 249.773438 10.433594 249.242188 11.1875 249.636719 11.925781 C 249.851562 12.332031 249.824219 12.363281 249.296875 12.363281 C 247.378906 12.363281 245.9375 9.640625 247.414062 8.804688 C 248.0625 8.441406 248.871094 9.054688 248.464844 9.601562 C 248.25 9.894531 248.109375 9.957031 247.875 9.875 C 247.664062 9.800781 247.652344 9.644531 247.859375 9.671875 C 248.105469 9.707031 248.195312 9.46875 248 9.3125 C 247.644531 9.019531 247.324219 9.632812 247.65625 9.976562 C 247.898438 10.222656 248.515625 10.046875 248.664062 9.6875 C 248.75 9.480469 248.835938 9.210938 248.734375 8.996094 C 248.605469 8.730469 248.199219 8.617188 247.925781 8.574219 C 246.578125 8.382812 246.015625 10.613281 247.667969 11.898438 C 248.363281 12.4375 249.753906 12.757812 249.890625 12.410156 C 249.921875 12.328125 249.972656 12.324219 250.144531 12.386719 C 250.597656 12.558594 251.132812 12.03125 250.925781 11.613281 C 250.828125 11.414062 250.503906 11.339844 250.382812 11.488281 C 250.25 11.65625 250.402344 11.917969 250.636719 11.921875 L 250.84375 11.921875 L 250.667969 12.070312 C 250.238281 12.429688 249.660156 12.050781 249.714844 11.445312 C 249.828125 10.292969 251.484375 10.386719 251.546875 11.546875 C 251.578125 12.117188 251.546875 12.21875 251.234375 12.554688 C 250.421875 13.445312 248.070312 13.703125 248.070312 12.90625 C 248.070312 12.332031 247.113281 12.4375 247.109375 12.976562 C 247.109375 13.066406 247.082031 13.109375 247.054688 13.066406 C 247.023438 13.023438 246.882812 12.90625 246.742188 12.808594 C 245.394531 11.871094 244.144531 9.550781 245.082031 9.726562 C 245.582031 9.820312 245.664062 9.015625 245.183594 8.761719 C 244.601562 8.460938 243.980469 8.933594 244.007812 9.648438 C 244.023438 10.082031 244.023438 10.085938 243.855469 9.929688 C 243.613281 9.703125 242.8125 9.398438 242.457031 9.398438 C 242.316406 9.398438 242.304688 9.355469 242.304688 8.691406 C 242.304688 7.121094 240.996094 6.523438 240.566406 7.652344 C 240.28125 8.398438 241.082031 8.921875 241.566406 8.304688 C 241.820312 7.980469 241.632812 7.539062 241.28125 7.648438 C 240.980469 7.746094 241.003906 8.0625 241.3125 8.0625 C 241.527344 8.0625 241.546875 8.175781 241.347656 8.28125 C 240.792969 8.582031 240.4375 7.917969 240.914062 7.46875 C 241.527344 6.898438 242.15625 7.589844 242.15625 8.824219 L 242.15625 9.375 C 241.761719 9.410156 241.257812 9.46875 240.550781 9.441406 C 239.816406 9.417969 239.796875 9.433594 240.113281 9.726562 C 240.59375 10.167969 240.71875 13.945312 240.246094 13.648438 Z M 252.535156 13.710938 C 252.699219 13.945312 252.570312 14.121094 252.195312 14.183594 C 251.796875 14.25 251.113281 14.265625 250.546875 14.21875 C 250.128906 14.183594 250.085938 14.15625 250.128906 13.941406 C 250.136719 13.910156 250.367188 13.878906 250.640625 13.871094 C 250.914062 13.863281 251.355469 13.789062 251.617188 13.703125 C 252.230469 13.511719 252.398438 13.511719 252.535156 13.710938 Z M 250.066406 13.511719 C 250.066406 13.492188 250.214844 13.425781 250.398438 13.363281 C 251.179688 13.097656 251.644531 12.519531 251.910156 12.84375 C 252.109375 13.082031 251.773438 13.429688 251.175781 13.609375 C 250.65625 13.765625 250.066406 13.796875 250.066406 13.667969 Z M 249.832031 13.835938 C 249.847656 14.007812 249.824219 14.070312 249.738281 14.070312 C 249.65625 14.070312 249.625 13.996094 249.625 13.804688 C 249.625 13.46875 249.796875 13.496094 249.832031 13.835938 Z M 247.375 12.804688 C 247.613281 12.539062 247.988281 12.707031 247.898438 13.039062 C 247.847656 13.242188 248.316406 13.457031 248.949219 13.523438 C 249.445312 13.578125 249.628906 13.699219 249.476562 13.882812 C 249.214844 14.199219 248.113281 13.550781 247.945312 13.550781 C 247.628906 13.550781 247.203125 12.992188 247.375 12.804688 Z M 242.324219 12.171875 C 242.253906 10.953125 242.816406 10.054688 243.242188 10.703125 C 243.351562 10.867188 243.378906 10.808594 242.707031 11.75 C 242.503906 12.03125 242.472656 13.03125 242.667969 13.03125 C 242.703125 13.03125 242.710938 12.949219 242.691406 12.84375 C 242.554688 12.109375 243.359375 11.054688 243.828125 11.359375 C 244.113281 11.546875 244.066406 11.828125 243.726562 11.964844 C 243.011719 12.25 242.863281 12.425781 242.855469 12.992188 C 242.839844 13.914062 242.382812 13.207031 242.324219 12.171875 Z M 243.191406 9.773438 C 244.726562 10.277344 245.503906 12.847656 244.339844 13.5625 C 243.632812 13.996094 242.828125 13.445312 243.085938 12.703125 C 243.210938 12.332031 243.265625 12.285156 243.617188 12.238281 C 244.113281 12.171875 244.433594 12.671875 244.09375 12.984375 C 243.890625 13.167969 243.773438 13.136719 243.828125 12.921875 C 243.878906 12.710938 243.59375 12.636719 243.515625 12.839844 C 243.339844 13.304688 244.019531 13.402344 244.324219 12.960938 C 244.632812 12.507812 244.1875 10.9375 243.695312 10.742188 C 243.660156 10.730469 243.589844 10.675781 243.539062 10.621094 C 243.367188 10.453125 242.835938 10.210938 242.621094 10.210938 C 242.335938 10.210938 242.265625 10.140625 242.269531 9.859375 C 242.269531 9.558594 242.484375 9.539062 243.191406 9.773438 Z M 243.191406 9.773438 " fill-opacity="1" fill-rule="nonzero"/><path fill="#000000" d="M 255.09375 13.691406 C 255.09375 13.601562 255.039062 13.550781 254.945312 13.550781 C 254.804688 13.550781 254.734375 13.761719 254.839844 13.867188 C 254.925781 13.949219 255.09375 13.832031 255.09375 13.691406 Z M 255.09375 13.691406 " fill-opacity="1" fill-rule="nonzero"/><path fill="#000000" d="M 222.644531 14.292969 C 222.785156 14.292969 222.84375 14.148438 222.746094 14.050781 C 222.675781 13.976562 222.496094 14.078125 222.496094 14.1875 C 222.496094 14.246094 222.5625 14.292969 222.644531 14.292969 Z M 222.644531 14.292969 " fill-opacity="1" fill-rule="nonzero"/><path fill="#000000" d="M 254.890625 14.105469 C 254.863281 13.996094 254.628906 14.015625 254.589844 14.132812 C 254.542969 14.277344 254.910156 14.195312 254.890625 14.105469 Z M 254.890625 14.105469 " fill-opacity="1" fill-rule="nonzero"/><path fill="#000000" d="M 230.277344 12.246094 C 229.898438 12.25 229.742188 12.28125 229.738281 12.34375 C 229.738281 12.589844 230.941406 12.375 231.605469 12.015625 C 233.085938 11.207031 233.378906 9.074219 232.082031 8.519531 C 231.300781 8.1875 230.445312 9.25 231.046875 9.808594 C 231.398438 10.140625 231.785156 10.132812 232.003906 9.800781 C 232.21875 9.46875 231.902344 9.015625 231.59375 9.207031 C 231.421875 9.316406 231.503906 9.621094 231.703125 9.621094 C 232.019531 9.621094 231.867188 9.800781 231.535156 9.828125 C 230.820312 9.878906 230.855469 9.050781 231.582031 8.65625 C 231.847656 8.515625 232.40625 8.816406 232.585938 9.195312 C 233.207031 10.507812 231.902344 12.230469 230.277344 12.246094 Z M 230.277344 12.246094 " fill-opacity="1" fill-rule="nonzero"/><path fill="#000000" d="M 229.445312 14.285156 C 229.628906 14.242188 229.910156 14.183594 230.074219 14.152344 C 230.425781 14.085938 230.847656 13.949219 231.273438 13.761719 C 231.445312 13.6875 231.601562 13.625 231.617188 13.625 C 231.695312 13.625 232.773438 12.972656 233.101562 12.726562 C 233.277344 12.59375 233.4375 12.449219 233.59375 12.296875 C 234.765625 11.113281 235.222656 9.730469 234.851562 9.460938 C 234.757812 9.390625 234.652344 9.410156 234.546875 9.417969 C 234.449219 9.425781 234.367188 9.476562 234.300781 9.378906 C 234.082031 9.074219 234.597656 8.625 234.894531 8.761719 C 235.089844 8.851562 235.269531 9.070312 235.316406 9.28125 C 235.417969 9.710938 235.234375 10.191406 235.054688 10.574219 C 234.160156 12.445312 234.5625 13.921875 235.972656 13.921875 C 237.042969 13.921875 237.425781 13.136719 237.425781 10.945312 C 237.425781 9.300781 237.386719 9.398438 237.996094 9.582031 C 238.714844 9.796875 238.90625 10.335938 238.90625 12.171875 C 238.902344 13.976562 238.445312 14.726562 237.757812 14.035156 C 237.46875 13.75 237.589844 13.253906 237.945312 13.253906 C 238.15625 13.253906 238.179688 13.355469 238.003906 13.488281 C 237.785156 13.65625 237.988281 13.949219 238.222656 13.800781 C 238.539062 13.601562 238.332031 13.105469 237.933594 13.105469 C 237.335938 13.105469 237.230469 14.023438 237.789062 14.332031 C 238.144531 14.527344 238.710938 14.304688 238.84375 13.917969 C 238.933594 13.660156 239.015625 13.640625 239.128906 13.847656 C 239.230469 14.039062 239.46875 14.039062 239.570312 13.847656 C 239.710938 13.582031 239.433594 13.414062 239.289062 13.675781 C 239.117188 13.980469 239.054688 13.476562 239.046875 11.746094 C 239.039062 9.867188 239.050781 9.820312 239.441406 9.59375 C 239.761719 9.410156 239.703125 9.394531 238.601562 9.367188 C 237.28125 9.332031 237.375 9.40625 237.445312 8.457031 C 237.523438 7.390625 238.105469 6.917969 238.695312 7.441406 C 239.097656 7.804688 238.769531 8.5 238.28125 8.3125 C 238.113281 8.246094 238.140625 8.0625 238.320312 8.0625 C 238.515625 8.0625 238.492188 7.742188 238.292969 7.703125 C 237.949219 7.636719 237.804688 8.179688 238.109375 8.390625 C 238.648438 8.773438 239.246094 8.1875 238.976562 7.535156 C 238.867188 7.265625 238.65625 7.171875 238.179688 7.171875 C 237.292969 7.175781 237.328125 7.828125 237.261719 9.3125 L 236.957031 9.363281 C 235.695312 9.574219 235.433594 10.433594 235.492188 9.65625 C 235.578125 8.589844 234.789062 8.355469 234.339844 8.804688 C 234.097656 9.046875 233.976562 9.675781 234.484375 9.636719 C 234.96875 9.597656 234.820312 10.234375 234.710938 10.542969 C 234.34375 11.582031 232.121094 13.507812 232.371094 12.851562 C 232.394531 12.796875 232.3125 12.679688 232.183594 12.589844 C 231.894531 12.382812 231.589844 12.5 231.5 12.855469 C 231.300781 13.625 229.101562 13.394531 228.3125 12.519531 C 227.484375 11.597656 228.417969 10.09375 229.425781 10.726562 C 229.949219 11.054688 229.933594 12.027344 229.40625 12.078125 C 228.964844 12.117188 228.710938 11.917969 229.082031 11.820312 C 229.265625 11.773438 229.253906 11.492188 229.0625 11.375 C 228.707031 11.152344 228.511719 11.75 228.828125 12.082031 C 229.441406 12.722656 230.296875 11.839844 229.886719 10.992188 C 229.390625 9.964844 227.945312 10.390625 227.777344 11.613281 C 227.523438 13.441406 226.25 14.476562 225.324219 13.605469 C 224.804688 13.121094 225.4375 12.113281 226.050781 12.441406 C 226.21875 12.53125 226.171875 12.660156 225.976562 12.660156 C 225.761719 12.660156 225.648438 12.84375 225.746094 13.027344 C 225.917969 13.347656 226.339844 13.128906 226.339844 12.71875 C 226.339844 12.027344 225.34375 12.027344 225.015625 12.71875 C 224.449219 13.914062 227.035156 14.828125 229.445312 14.285156 Z M 236.996094 13.101562 C 236.765625 13.414062 236.6875 13.375 236.6875 12.953125 C 236.6875 12.472656 236.472656 12.152344 236.050781 12.003906 C 235.503906 11.808594 235.347656 11.507812 235.679688 11.289062 C 236.230469 10.925781 237.191406 12.324219 236.8125 12.933594 C 236.785156 12.980469 236.789062 13.039062 236.828125 13.066406 C 236.925781 13.125 237.007812 12.832031 237.003906 12.433594 C 237 12.0625 236.800781 11.601562 236.449219 11.167969 C 236.136719 10.773438 236.300781 10.347656 236.707031 10.503906 C 237.269531 10.71875 237.464844 12.464844 236.996094 13.101562 Z M 237.289062 9.453125 L 237.242188 10.089844 L 236.855469 10.179688 C 236.191406 10.328125 235.433594 10.988281 235.285156 11.542969 C 234.734375 13.609375 236.136719 13.253906 236.082031 12.847656 C 236.050781 12.632812 235.769531 12.648438 235.742188 12.863281 C 235.707031 13.089844 235.550781 13.078125 235.445312 12.84375 C 235.171875 12.246094 235.761719 11.914062 236.277344 12.371094 C 236.691406 12.734375 236.636719 13.34375 236.171875 13.585938 C 235.332031 14.023438 234.480469 12.976562 234.753906 11.84375 C 235.207031 9.976562 236.101562 9.675781 237.289062 9.453125 Z M 230.847656 13.402344 C 231.441406 13.296875 231.628906 13.183594 231.6875 12.886719 C 231.757812 12.523438 232.253906 12.585938 232.253906 12.960938 C 232.253906 13.070312 231.933594 13.339844 231.660156 13.457031 C 231.234375 13.636719 231 13.75 230.8125 13.796875 C 230.453125 13.890625 230.035156 14.105469 230.035156 13.6875 C 230.035156 13.546875 230.046875 13.542969 230.847656 13.402344 Z M 229.914062 13.753906 C 229.9375 13.902344 229.949219 14.035156 229.9375 14.046875 C 229.878906 14.101562 229.738281 13.871094 229.738281 13.726562 C 229.738281 13.445312 229.867188 13.464844 229.914062 13.753906 Z M 228.335938 12.847656 C 228.542969 13.015625 229.132812 13.316406 229.304688 13.339844 C 229.421875 13.355469 229.480469 13.414062 229.480469 13.511719 C 229.480469 13.945312 227.769531 13.5 227.605469 13.023438 C 227.46875 12.628906 227.929688 12.515625 228.335938 12.847656 Z M 227.875 13.613281 C 228.152344 13.703125 228.628906 13.800781 228.929688 13.828125 C 229.613281 13.898438 229.753906 14.089844 229.179688 14.171875 C 228.09375 14.320312 227.054688 14.15625 227.019531 13.828125 C 226.980469 13.488281 227.257812 13.417969 227.875 13.613281 Z M 227.875 13.613281 " fill-opacity="1" fill-rule="nonzero"/><path fill="#000000" d="M 224.75 14.515625 C 224.617188 14.515625 224.609375 14.601562 224.730469 14.722656 C 224.847656 14.84375 224.863281 14.835938 224.863281 14.664062 C 224.863281 14.582031 224.8125 14.515625 224.75 14.515625 Z M 224.75 14.515625 " fill-opacity="1" fill-rule="nonzero"/><path fill="#000000" d="M 224.671875 13.851562 C 224.695312 13.816406 224.679688 13.761719 224.636719 13.734375 C 224.527344 13.667969 224.324219 13.753906 224.382812 13.847656 C 224.4375 13.941406 224.617188 13.945312 224.671875 13.851562 Z M 224.671875 13.851562 " fill-opacity="1" fill-rule="nonzero"/><path fill="#000000" d="M 256.386719 13.546875 C 256.4375 13.46875 256.300781 13.253906 256.199219 13.253906 C 256.121094 13.253906 256.042969 13.476562 256.09375 13.558594 C 256.152344 13.648438 256.328125 13.644531 256.386719 13.546875 Z M 256.386719 13.546875 " fill-opacity="1" fill-rule="nonzero"/><path fill="#000000" d="M 255.90625 13.328125 C 255.90625 13.246094 255.859375 13.179688 255.800781 13.179688 C 255.667969 13.179688 255.585938 13.300781 255.648438 13.402344 C 255.726562 13.53125 255.90625 13.480469 255.90625 13.328125 Z M 255.90625 13.328125 " fill-opacity="1" fill-rule="nonzero"/><path fill="#000000" d="M 255.484375 14.230469 C 255.273438 14.429688 255.273438 14.515625 255.46875 14.765625 C 255.710938 15.078125 256.203125 14.933594 256.203125 14.546875 C 256.203125 14.140625 255.78125 13.953125 255.484375 14.230469 Z M 255.484375 14.230469 " fill-opacity="1" fill-rule="nonzero"/><path fill="#000000" d="M 255.011719 14.304688 C 254.988281 14.800781 255.09375 15.054688 255.40625 15.238281 C 255.960938 15.558594 256.667969 15 256.527344 14.347656 C 256.359375 13.546875 255.046875 13.507812 255.011719 14.304688 Z M 256.117188 15.0625 C 255.789062 15.292969 255.402344 15.171875 255.199219 14.78125 C 255.011719 14.417969 255.320312 13.847656 255.703125 13.847656 C 256.339844 13.847656 256.628906 14.703125 256.117188 15.0625 Z M 256.117188 15.0625 " fill-opacity="1" fill-rule="nonzero"/><path fill="#000000" d="M 272.992188 14.003906 C 271.46875 12.515625 269.832031 12.144531 269.113281 13.117188 C 268.785156 13.566406 269.167969 14.59375 269.5625 14.308594 C 269.96875 14.019531 270.402344 14.089844 270.496094 14.46875 C 270.625 14.980469 270.039062 15.339844 269.648438 14.992188 C 269.484375 14.84375 269.378906 14.859375 269.171875 15.066406 C 268.796875 15.441406 269.023438 16.148438 269.605469 16.4375 C 270.402344 16.835938 272.050781 16.195312 273.367188 14.972656 C 273.664062 14.699219 273.632812 14.625 272.992188 14.003906 Z M 269.371094 13.910156 C 269.183594 13.789062 269.132812 13.710938 269.152344 13.566406 C 269.179688 13.316406 269.339844 13.273438 269.425781 13.492188 C 269.460938 13.589844 269.542969 13.710938 269.609375 13.765625 C 269.675781 13.820312 269.726562 13.910156 269.726562 13.96875 C 269.726562 14.105469 269.660156 14.09375 269.371094 13.910156 Z M 270.128906 13.402344 C 270.101562 13.6875 270.050781 13.921875 270.015625 13.921875 C 269.945312 13.921875 269.800781 13.671875 269.800781 13.546875 C 269.800781 13.5 269.730469 13.363281 269.644531 13.242188 C 269.457031 12.976562 269.546875 12.828125 269.914062 12.792969 C 270.1875 12.765625 270.191406 12.773438 270.128906 13.402344 Z M 269.1875 15.800781 C 269.058594 15.671875 269.144531 15.402344 269.355469 15.296875 C 269.621094 15.15625 269.726562 15.152344 269.726562 15.28125 C 269.726562 15.40625 269.253906 15.867188 269.1875 15.800781 Z M 270.183594 16.050781 C 270.15625 16.394531 270.078125 16.453125 269.785156 16.351562 C 269.527344 16.265625 269.527344 16.195312 269.808594 15.679688 C 270.132812 15.074219 270.253906 15.191406 270.183594 16.050781 Z M 272.425781 13.769531 C 272.402344 13.8125 272.109375 13.910156 271.058594 14.234375 C 270.917969 14.277344 270.761719 14.328125 270.714844 14.34375 C 270.292969 14.503906 271.191406 13.5 271.632812 13.324219 C 271.796875 13.257812 272.5 13.652344 272.425781 13.769531 Z M 270.289062 14.007812 C 270.25 13.941406 270.578125 12.964844 270.675781 12.867188 C 271.082031 12.460938 271.296875 13.046875 270.910156 13.5 C 270.707031 13.738281 270.539062 13.964844 270.539062 14 C 270.539062 14.085938 270.339844 14.089844 270.289062 14.007812 Z M 271.835938 15.882812 L 271.566406 16.027344 L 271.109375 15.554688 C 270.558594 14.984375 270.441406 15.101562 270.902344 15.753906 C 271.066406 15.988281 271.179688 16.203125 271.148438 16.230469 C 270.863281 16.492188 270.316406 16.109375 270.53125 15.792969 C 270.539062 15.785156 270.496094 15.679688 270.433594 15.558594 C 270.332031 15.363281 270.335938 15.332031 270.484375 15.132812 C 270.570312 15.019531 270.648438 14.914062 270.652344 14.90625 C 270.664062 14.886719 272.183594 15.480469 272.234375 15.523438 C 272.289062 15.574219 272.101562 15.738281 271.835938 15.882812 Z M 273.046875 14.992188 C 272.789062 15.210938 272.835938 15.207031 272.054688 15.027344 C 271.730469 14.953125 271.332031 14.871094 271.167969 14.84375 C 270.703125 14.761719 270.519531 14.441406 270.9375 14.441406 C 271.164062 14.441406 272.84375 14.144531 272.886719 14.144531 C 273.203125 14.140625 273.324219 14.757812 273.046875 14.992188 Z M 273.046875 14.992188 " fill-opacity="1" fill-rule="nonzero"/><path fill="#000000" d="M 254.945312 15.183594 C 254.800781 15.183594 254.746094 15.328125 254.847656 15.429688 C 254.949219 15.53125 255.09375 15.472656 255.09375 15.332031 C 255.09375 15.230469 255.042969 15.183594 254.945312 15.183594 Z M 254.945312 15.183594 " fill-opacity="1" fill-rule="nonzero"/><path fill="#000000" d="M 255.191406 15.65625 C 255.214844 15.722656 255.269531 15.777344 255.316406 15.777344 C 255.421875 15.777344 255.496094 15.558594 255.417969 15.476562 C 255.316406 15.378906 255.136719 15.519531 255.191406 15.65625 Z M 255.191406 15.65625 " fill-opacity="1" fill-rule="nonzero"/><path fill="#000000" d="M 256.449219 15.292969 C 256.425781 15.355469 256.34375 15.40625 256.265625 15.40625 C 256.191406 15.40625 256.128906 15.4375 256.128906 15.480469 C 256.128906 15.519531 256.011719 15.554688 255.867188 15.554688 C 255.6875 15.554688 255.609375 15.585938 255.609375 15.664062 C 255.609375 15.828125 256.136719 15.808594 256.359375 15.640625 C 256.453125 15.566406 256.589844 15.484375 256.664062 15.457031 C 256.738281 15.429688 256.773438 15.367188 256.746094 15.296875 C 256.691406 15.152344 256.503906 15.148438 256.449219 15.292969 Z M 256.449219 15.292969 " fill-opacity="1" fill-rule="nonzero"/><path fill="#000000" d="M 254.789062 14.84375 C 254.699219 14.789062 254.5625 14.953125 254.621094 15.050781 C 254.640625 15.082031 254.707031 15.109375 254.765625 15.109375 C 254.890625 15.109375 254.90625 14.917969 254.789062 14.84375 Z M 254.789062 14.84375 " fill-opacity="1" fill-rule="nonzero"/><path fill="#000000" d="M 239.234375 15.425781 C 239.382812 15.628906 239.738281 15.394531 239.601562 15.175781 C 239.535156 15.066406 239.1875 15.097656 239.042969 15.230469 C 238.917969 15.34375 238.90625 15.339844 238.835938 15.175781 C 238.609375 14.628906 237.894531 14.484375 237.53125 14.910156 C 237.121094 15.386719 237.472656 16.113281 238.046875 15.96875 C 238.394531 15.882812 238.417969 15.257812 238.074219 15.257812 C 237.90625 15.257812 237.851562 15.480469 237.984375 15.628906 C 238.113281 15.773438 237.976562 15.886719 237.761719 15.804688 C 237.378906 15.65625 237.523438 14.941406 237.957031 14.84375 C 238.582031 14.707031 238.820312 15.21875 238.824219 16.707031 C 238.835938 18.824219 238.546875 19.484375 237.621094 19.484375 L 237.351562 19.484375 L 237.367188 18.09375 C 237.394531 15.628906 236.628906 14.609375 235.261719 15.304688 C 234.253906 15.816406 234.175781 16.878906 235.019531 18.597656 C 235.507812 19.589844 235.246094 20.457031 234.507812 20.269531 C 234.109375 20.171875 234.058594 19.523438 234.457031 19.605469 C 235.570312 19.828125 234.398438 17.269531 232.898438 16.191406 C 229.710938 13.910156 222.855469 14.371094 225.1875 16.710938 C 225.667969 17.195312 226.636719 16.78125 226.339844 16.21875 C 226.128906 15.824219 225.675781 15.832031 225.675781 16.234375 C 225.675781 16.402344 225.875 16.496094 225.988281 16.378906 C 226.105469 16.265625 226.191406 16.273438 226.191406 16.402344 C 226.191406 16.542969 225.90625 16.742188 225.707031 16.742188 C 225.03125 16.742188 224.90625 15.539062 225.546875 15.234375 C 226.390625 14.832031 227.328125 15.734375 227.640625 17.246094 C 227.785156 17.941406 227.886719 18.148438 228.238281 18.441406 C 229.203125 19.238281 230.5625 17.914062 229.722656 16.996094 C 229.253906 16.480469 228.367188 16.777344 228.519531 17.394531 C 228.597656 17.707031 229.007812 17.839844 229.105469 17.582031 C 229.191406 17.359375 229.078125 17.167969 228.882812 17.203125 C 228.675781 17.246094 228.65625 17.171875 228.828125 17 C 229.058594 16.769531 229.695312 17.019531 229.785156 17.371094 C 230.070312 18.515625 228.503906 18.953125 228.019531 17.863281 C 227.53125 16.75 228.773438 15.695312 230.453125 15.796875 C 231.222656 15.84375 231.457031 15.953125 231.382812 16.238281 C 231.261719 16.699219 232.148438 16.730469 232.320312 16.269531 L 232.402344 16.0625 L 232.632812 16.199219 C 233.382812 16.628906 234.570312 18.214844 234.664062 18.910156 C 234.722656 19.332031 234.613281 19.527344 234.394531 19.394531 C 234.042969 19.171875 233.875 19.894531 234.191406 20.257812 C 234.714844 20.851562 235.808594 19.96875 235.429688 19.257812 C 235.328125 19.066406 235.390625 19.074219 235.777344 19.304688 C 235.953125 19.40625 236.339844 19.554688 236.632812 19.628906 L 237.167969 19.765625 C 237.207031 21.214844 237.175781 21.726562 237.847656 21.933594 C 238.433594 22.109375 238.980469 21.722656 238.980469 21.128906 C 238.980469 20.441406 237.972656 20.316406 237.839844 20.988281 C 237.757812 21.402344 238.273438 21.675781 238.417969 21.289062 C 238.488281 21.105469 238.328125 20.957031 238.160156 21.046875 C 237.996094 21.132812 237.957031 20.984375 238.105469 20.835938 C 238.359375 20.582031 238.882812 20.894531 238.796875 21.253906 C 238.507812 22.492188 237.355469 21.742188 237.355469 20.320312 L 237.351562 19.707031 C 239.335938 19.707031 239.914062 19.734375 239.425781 19.429688 C 239.058594 19.199219 239.015625 18.96875 239.015625 17.222656 C 239.015625 15.523438 239.058594 15.183594 239.234375 15.425781 Z M 227.019531 15.460938 C 226.289062 15.109375 227.96875 14.699219 229.199219 14.929688 C 229.621094 15.011719 229.492188 15.160156 228.945312 15.21875 C 228.671875 15.25 228.199219 15.335938 227.898438 15.414062 C 227.277344 15.574219 227.253906 15.574219 227.019531 15.460938 Z M 229.382812 15.675781 C 228.964844 15.8125 228.453125 16.035156 228.300781 16.15625 C 227.914062 16.460938 227.464844 16.394531 227.550781 16.042969 C 227.628906 15.730469 228.617188 15.335938 229.34375 15.332031 C 229.488281 15.332031 229.523438 15.632812 229.382812 15.675781 Z M 229.8125 15.554688 C 229.636719 15.554688 229.621094 15.109375 229.796875 15.054688 C 229.859375 15.03125 229.886719 15.109375 229.886719 15.289062 C 229.886719 15.433594 229.855469 15.554688 229.8125 15.554688 Z M 232.132812 16.285156 C 231.925781 16.582031 231.585938 16.484375 231.585938 16.132812 C 231.585938 15.855469 231.136719 15.632812 230.585938 15.628906 C 230.132812 15.628906 229.945312 15.511719 230.011719 15.269531 C 230.058594 15.089844 230.476562 15.085938 230.660156 15.261719 C 230.699219 15.300781 230.78125 15.332031 230.839844 15.332031 C 231.359375 15.332031 232.308594 16.03125 232.132812 16.285156 Z M 236.753906 15.777344 C 237.109375 15.777344 236.765625 17.179688 236.3125 17.589844 C 235.996094 17.875 235.800781 17.917969 235.621094 17.738281 C 235.464844 17.578125 235.472656 17.265625 235.632812 17.210938 C 236.390625 16.957031 236.621094 16.710938 236.625 16.152344 C 236.628906 15.847656 236.652344 15.777344 236.753906 15.777344 Z M 237.191406 19.265625 C 237.164062 19.558594 237.125 19.570312 236.652344 19.453125 C 234.515625 18.921875 233.730469 15.40625 235.75 15.40625 C 236.546875 15.40625 236.75 16.476562 236.023438 16.851562 C 235.585938 17.078125 235.136719 16.632812 235.382812 16.222656 C 235.515625 16.003906 235.699219 15.972656 235.664062 16.175781 C 235.640625 16.335938 235.773438 16.449219 235.921875 16.390625 C 236.074219 16.335938 236.042969 16.015625 235.878906 15.925781 C 235.347656 15.640625 234.960938 16.238281 235.136719 17.074219 C 235.332031 18.019531 236.136719 18.878906 236.835938 18.890625 C 237.125 18.894531 237.21875 18.992188 237.191406 19.265625 Z M 236.867188 18.453125 C 236.746094 18.589844 236.535156 18.625 236.335938 18.546875 C 236.160156 18.472656 236.238281 18.097656 236.496094 17.785156 C 236.839844 17.371094 237.003906 16.914062 236.972656 16.449219 C 236.941406 16.007812 237.019531 15.957031 237.128906 16.351562 C 237.304688 16.992188 237.164062 18.121094 236.867188 18.453125 Z M 236.867188 18.453125 " fill-opacity="1" fill-rule="nonzero"/><path fill="#000000" d="M 256.933594 14.84375 C 256.820312 14.773438 256.644531 14.867188 256.644531 14.996094 C 256.644531 15.058594 256.707031 15.109375 256.785156 15.109375 C 256.941406 15.109375 257.050781 14.917969 256.933594 14.84375 Z M 256.933594 14.84375 " fill-opacity="1" fill-rule="nonzero"/><g clip-path="url(#0161e83294)"><path fill="#000000" d="M 248.101562 15.410156 C 247.9375 15.488281 247.777344 15.554688 247.746094 15.554688 C 247.640625 15.554688 246.78125 16.097656 246.550781 16.308594 C 246.429688 16.425781 246.304688 16.519531 246.277344 16.519531 C 246.25 16.519531 246.070312 16.675781 245.875 16.871094 C 244.546875 18.191406 244.0625 19.707031 244.972656 19.707031 C 245.148438 19.707031 245.1875 19.738281 245.1875 19.875 C 245.1875 20.449219 244.546875 20.558594 244.230469 20.042969 C 244.035156 19.730469 244.117188 19.238281 244.496094 18.449219 C 245.285156 16.800781 244.960938 15.398438 243.75 15.214844 C 242.566406 15.039062 242.097656 15.847656 242.070312 18.132812 C 242.050781 19.613281 242.050781 19.632812 241.890625 19.632812 C 241.496094 19.632812 240.984375 19.269531 240.746094 18.816406 C 240.152344 17.6875 240.746094 14.71875 241.527344 14.914062 C 241.90625 15.011719 242.019531 15.734375 241.667969 15.820312 C 241.402344 15.890625 241.179688 15.78125 241.40625 15.695312 C 241.585938 15.625 241.613281 15.332031 241.445312 15.277344 C 241.1875 15.191406 241.023438 15.738281 241.238281 15.957031 C 241.53125 16.25 242.082031 15.9375 242.082031 15.480469 C 242.082031 14.671875 241.019531 14.453125 240.640625 15.183594 C 240.578125 15.304688 240.503906 15.40625 240.472656 15.40625 C 240.445312 15.40625 240.433594 16.191406 240.445312 17.148438 C 240.476562 19.179688 240.476562 19.195312 240.078125 19.484375 C 239.691406 19.765625 239.726562 19.777344 241.011719 19.800781 L 242.046875 19.820312 C 241.992188 21.445312 242.023438 21.785156 241.25 21.785156 C 240.804688 21.785156 240.625 21.5625 240.671875 21.0625 C 240.6875 20.886719 241.023438 20.726562 241.191406 20.816406 C 241.382812 20.921875 241.390625 21.042969 241.203125 21.042969 C 241.007812 21.042969 240.9375 21.273438 241.097656 21.394531 C 241.261719 21.515625 241.308594 21.511719 241.449219 21.371094 C 241.828125 20.992188 241.273438 20.546875 240.871094 20.644531 C 240.0625 20.84375 240.519531 21.960938 241.230469 22.039062 C 242.246094 22.148438 242.203125 20.773438 242.253906 19.769531 C 242.707031 19.855469 242.5625 19.84375 243.191406 19.589844 C 243.375 19.515625 243.613281 19.394531 243.722656 19.320312 C 243.828125 19.25 243.929688 19.1875 243.941406 19.1875 C 243.957031 19.1875 243.96875 19.390625 243.972656 19.632812 C 243.976562 20.371094 244.621094 20.78125 245.136719 20.375 C 245.46875 20.109375 245.410156 19.523438 245.050781 19.523438 C 244.226562 19.523438 244.796875 18.125 246.121094 16.898438 C 246.964844 16.121094 247.109375 15.898438 247.109375 16.234375 C 247.109375 16.808594 247.929688 16.796875 248.007812 16.222656 C 248.105469 15.519531 250.4375 15.824219 251.1875 16.640625 C 251.9375 17.453125 251.085938 18.929688 250.144531 18.449219 C 249.472656 18.105469 249.53125 17.039062 250.21875 17.039062 C 250.492188 17.039062 250.652344 17.226562 250.4375 17.296875 C 250.191406 17.375 250.261719 17.734375 250.523438 17.765625 C 250.996094 17.820312 250.941406 17.117188 250.457031 16.914062 C 250.28125 16.839844 250.171875 16.832031 250.070312 16.886719 C 249.957031 16.945312 249.910156 16.9375 249.859375 16.84375 C 249.617188 16.40625 248.003906 16.84375 247.300781 17.53125 C 246.085938 18.726562 246.535156 20.851562 247.960938 20.636719 C 248.878906 20.5 248.859375 19.113281 247.933594 19.113281 C 247.609375 19.113281 247.40625 19.300781 247.40625 19.605469 C 247.40625 19.976562 247.941406 20.058594 247.984375 19.6875 C 248.003906 19.511719 247.980469 19.484375 247.816406 19.484375 C 247.570312 19.484375 247.570312 19.351562 247.820312 19.292969 C 248.246094 19.183594 248.636719 19.878906 248.347656 20.226562 C 247.605469 21.109375 246.453125 19.949219 246.832031 18.703125 C 247.171875 17.597656 248.195312 16.890625 249.453125 16.890625 L 249.871094 16.890625 L 249.691406 17.082031 C 249.21875 17.585938 249.558594 18.582031 250.25 18.710938 C 251.011719 18.855469 251.480469 18.449219 251.722656 17.445312 C 252.132812 15.726562 252.878906 14.980469 253.839844 15.328125 C 254.09375 15.421875 254.515625 15.988281 254.386719 16.269531 C 254.347656 16.355469 253.832031 16.996094 253.328125 16.671875 C 253.175781 16.578125 253.308594 16.425781 253.503906 16.472656 C 253.710938 16.527344 253.867188 16.359375 253.800781 16.152344 C 253.734375 15.9375 253.363281 15.945312 253.210938 16.164062 C 252.886719 16.632812 253.40625 17.148438 253.972656 16.921875 C 254.488281 16.714844 254.683594 15.945312 254.347656 15.46875 C 253.664062 14.503906 250.085938 14.472656 248.101562 15.410156 Z M 242.300781 16.730469 C 242.425781 15.941406 242.773438 15.453125 242.792969 16.042969 C 242.808594 16.558594 242.835938 16.648438 243.039062 16.863281 C 243.160156 16.984375 243.398438 17.128906 243.566406 17.1875 C 244.015625 17.335938 244.15625 17.925781 243.742188 17.925781 C 243.113281 17.925781 242.492188 16.988281 242.644531 16.265625 C 242.683594 16.074219 242.675781 16.050781 242.589844 16.132812 C 242.328125 16.382812 242.574219 17.429688 243.003906 17.894531 C 243.203125 18.109375 243.25 18.433594 243.105469 18.578125 C 242.628906 19.054688 242.117188 17.875 242.300781 16.730469 Z M 243.363281 19.296875 C 243.125 19.40625 242.875 19.527344 242.804688 19.566406 C 242.460938 19.746094 242.230469 19.636719 242.230469 19.296875 C 242.230469 19.042969 242.328125 18.964844 242.644531 18.964844 C 242.863281 18.964844 243.203125 18.785156 243.617188 18.453125 C 244.5 17.738281 244.609375 15.925781 243.769531 15.925781 C 243.464844 15.925781 243.3125 16.308594 243.5625 16.445312 C 243.714844 16.527344 243.714844 16.527344 243.828125 16.15625 C 243.875 16 244.058594 16.1875 244.117188 16.453125 C 244.226562 16.953125 243.625 17.148438 243.199219 16.746094 C 242.613281 16.199219 243.285156 15.140625 243.988281 15.507812 C 245.277344 16.175781 244.878906 18.59375 243.363281 19.296875 Z M 248.589844 15.742188 C 248.179688 15.800781 247.820312 16 247.785156 16.191406 C 247.726562 16.515625 247.464844 16.652344 247.316406 16.328125 C 247.195312 16.0625 247.421875 15.871094 248.253906 15.527344 C 249.117188 15.171875 249.355469 15.148438 249.386719 15.417969 C 249.414062 15.636719 249.445312 15.621094 248.589844 15.742188 Z M 249.738281 15.550781 C 249.652344 15.6875 249.539062 15.632812 249.585938 15.476562 C 249.667969 15.21875 249.359375 15.109375 249.574219 15.109375 C 249.703125 15.109375 249.816406 15.417969 249.738281 15.550781 Z M 251.835938 16.410156 C 251.707031 16.566406 251.546875 16.539062 251.210938 16.3125 C 250.871094 16.078125 250.65625 15.972656 250.265625 15.839844 C 249.789062 15.675781 249.933594 15.515625 250.550781 15.527344 C 251.433594 15.546875 252.148438 16.035156 251.835938 16.410156 Z M 252.339844 15.585938 C 252.136719 15.730469 252.136719 15.730469 251.507812 15.503906 C 251.210938 15.398438 250.785156 15.308594 250.511719 15.296875 C 249.628906 15.257812 249.8125 15.003906 250.769531 14.9375 C 252.042969 14.847656 252.890625 15.199219 252.339844 15.585938 Z M 252.339844 15.585938 " fill-opacity="1" fill-rule="nonzero"/></g><path fill="#000000" d="M 254.746094 14.402344 C 254.621094 14.273438 254.457031 14.445312 254.550781 14.609375 C 254.617188 14.71875 255.007812 14.664062 254.746094 14.402344 Z M 254.746094 14.402344 " fill-opacity="1" fill-rule="nonzero"/><path fill="#000000" d="M 270.273438 14.53125 C 270.171875 14.367188 269.972656 14.328125 269.835938 14.445312 C 269.675781 14.574219 269.703125 14.777344 269.894531 14.867188 C 270.121094 14.972656 270.398438 14.730469 270.273438 14.53125 Z M 270.273438 14.53125 " fill-opacity="1" fill-rule="nonzero"/><path fill="#000000" d="M 229.6875 16.714844 C 229.667969 16.769531 229.761719 16.785156 229.988281 16.761719 C 231.222656 16.621094 232.621094 17.875 232.652344 19.148438 C 232.675781 20.140625 231.703125 20.792969 231.101562 20.191406 C 230.671875 19.761719 231.144531 18.984375 231.664062 19.261719 C 231.878906 19.378906 231.839844 19.484375 231.585938 19.484375 C 231.417969 19.484375 231.367188 19.519531 231.367188 19.628906 C 231.367188 19.976562 231.824219 19.945312 231.960938 19.589844 C 232.046875 19.359375 231.992188 19.226562 231.765625 19.125 C 230.90625 18.730469 230.324219 19.871094 231.09375 20.4375 C 232.457031 21.433594 233.4375 18.964844 232.230469 17.585938 C 231.613281 16.878906 229.832031 16.269531 229.6875 16.714844 Z M 229.6875 16.714844 " fill-opacity="1" fill-rule="nonzero"/><path fill="#000000" d="M 266.105469 14.308594 C 266.105469 14.253906 265.988281 14.160156 265.839844 14.097656 C 265.273438 13.863281 264.878906 14.496094 265.304688 14.953125 C 265.589844 15.265625 266.257812 14.960938 266.152344 14.566406 C 266.128906 14.476562 266.109375 14.359375 266.105469 14.308594 Z M 265.550781 14.664062 C 265.488281 14.5625 265.574219 14.441406 265.703125 14.441406 C 265.761719 14.441406 265.808594 14.507812 265.808594 14.589844 C 265.808594 14.742188 265.632812 14.792969 265.550781 14.664062 Z M 265.550781 14.664062 " fill-opacity="1" fill-rule="nonzero"/><path fill="#000000" d="M 258.199219 15.378906 C 258.050781 15.503906 257.972656 15.53125 257.96875 15.46875 C 257.890625 14.277344 257.988281 13.472656 258.191406 13.65625 C 258.53125 13.964844 259.582031 14.046875 260.0625 13.804688 C 260.382812 13.640625 261.164062 13.171875 261.300781 13.0625 C 262.253906 12.292969 263.722656 12.125 264.171875 12.734375 C 264.558594 13.257812 264.257812 13.921875 263.636719 13.921875 C 263.265625 13.921875 262.984375 13.300781 263.238281 13.046875 C 263.496094 12.789062 263.914062 13.128906 263.714844 13.433594 C 263.554688 13.675781 263.558594 13.699219 263.769531 13.699219 C 263.996094 13.699219 264.203125 13.394531 264.140625 13.148438 C 263.960938 12.425781 262.957031 12.609375 262.96875 13.363281 C 262.984375 14.246094 264.105469 14.414062 264.449219 13.585938 C 264.933594 12.417969 263.476562 11.722656 262.039062 12.4375 C 261.382812 12.761719 261.273438 12.828125 261.132812 12.96875 C 260.957031 13.144531 259.597656 13.867188 259.542969 13.8125 C 259.519531 13.789062 259.585938 13.691406 259.695312 13.59375 C 260.199219 13.164062 259.828125 12.066406 259.183594 12.066406 C 258.527344 12.066406 258.167969 13.152344 258.769531 13.300781 C 259.15625 13.398438 259.550781 12.84375 259.195312 12.707031 C 259.015625 12.636719 258.863281 12.738281 258.863281 12.929688 C 258.863281 13.144531 258.75 13.160156 258.640625 12.953125 C 258.464844 12.628906 258.839844 12.238281 259.25 12.320312 C 259.816406 12.433594 259.921875 13.117188 259.449219 13.613281 C 259.109375 13.976562 258.15625 13.644531 257.949219 13.09375 C 257.90625 12.976562 257.828125 12.882812 257.773438 12.882812 C 257.675781 12.882812 257.65625 13.011719 257.648438 13.734375 C 257.640625 14.21875 257.253906 14.59375 256.984375 14.371094 C 256.851562 14.261719 256.699219 14.4375 256.792969 14.589844 C 256.847656 14.675781 256.894531 14.679688 256.992188 14.621094 C 257.148438 14.523438 257.292969 14.609375 257.605469 14.738281 C 257.605469 15.46875 257.558594 16.582031 257.929688 15.867188 C 258.21875 15.304688 259.175781 15.117188 259.542969 15.554688 C 260.066406 16.175781 259.378906 17.082031 258.730469 16.625 C 258.46875 16.441406 258.550781 16 258.847656 16 C 258.933594 16 258.9375 16.019531 258.863281 16.109375 C 258.742188 16.253906 258.820312 16.445312 259 16.445312 C 259.304688 16.445312 259.378906 16.066406 259.121094 15.847656 C 258.683594 15.484375 258.167969 16.21875 258.542969 16.667969 C 258.800781 16.976562 259.515625 16.972656 259.757812 16.660156 C 260.480469 15.714844 259.125 14.597656 258.199219 15.378906 Z M 258.199219 15.378906 " fill-opacity="1" fill-rule="nonzero"/><path fill="#000000" d="M 272.054688 12.757812 C 270.660156 11.941406 268.691406 12.058594 268.691406 12.960938 C 268.691406 13.15625 268.554688 13.210938 268.40625 13.074219 C 268.109375 12.804688 267.4375 13.050781 267.4375 13.429688 C 267.4375 13.621094 267.644531 13.847656 267.824219 13.847656 C 268.082031 13.847656 267.914062 14.03125 267.542969 14.15625 C 266.953125 14.355469 266.488281 14.335938 266.433594 14.105469 C 266.234375 13.316406 264.96875 13.410156 264.726562 14.234375 L 264.65625 14.476562 C 264.210938 14.46875 263.421875 14.472656 263.171875 14.339844 C 262.988281 14.246094 262.9375 14.246094 262.742188 14.351562 C 262.558594 14.449219 262.269531 14.46875 261.0625 14.464844 C 259 14.457031 259.609375 14.589844 260 14.589844 C 260.261719 14.589844 260.425781 14.625 260.488281 14.699219 C 260.539062 14.761719 260.660156 14.8125 260.753906 14.8125 C 261.023438 14.8125 261.753906 15.164062 262.019531 15.421875 C 262.25 15.644531 262.558594 15.59375 262.558594 15.332031 C 262.558594 15.242188 261.792969 14.890625 261.394531 14.800781 C 261.179688 14.753906 261.007812 14.691406 261.007812 14.667969 C 261.007812 14.597656 262.1875 14.65625 262.597656 14.746094 C 262.867188 14.804688 263.050781 14.804688 263.261719 14.746094 C 263.878906 14.574219 264.625 14.636719 264.722656 14.867188 C 265.085938 15.695312 266.132812 15.855469 266.410156 15.125 C 266.496094 14.898438 267.136719 14.910156 267.617188 15.148438 C 267.902344 15.292969 268.066406 15.503906 267.871094 15.476562 C 267.558594 15.433594 267.40625 15.667969 267.523438 16.007812 C 267.632812 16.316406 268.179688 16.40625 268.339844 16.148438 C 268.609375 15.714844 268.636719 16.410156 269.382812 16.78125 C 270.140625 17.160156 271.480469 16.886719 272.425781 16.164062 C 272.519531 16.09375 272.667969 15.984375 272.761719 15.925781 C 273 15.765625 273.644531 15.140625 273.933594 14.90625 C 274.269531 14.632812 273.238281 13.453125 272.054688 12.757812 Z M 268.441406 14.746094 C 267.792969 14.546875 267.308594 14.609375 267.921875 14.8125 C 268.398438 14.972656 268.574219 15.496094 268.300781 15.9375 C 268.132812 16.207031 267.660156 16.089844 267.660156 15.78125 C 267.660156 15.617188 267.882812 15.511719 267.957031 15.632812 C 268.039062 15.765625 268.175781 15.640625 268.175781 15.4375 C 268.175781 14.929688 266.402344 14.449219 266.285156 14.925781 C 266.132812 15.53125 265.265625 15.550781 264.957031 14.953125 C 264.542969 14.148438 265.488281 13.363281 266.113281 13.988281 C 266.230469 14.109375 266.328125 14.257812 266.328125 14.324219 C 266.328125 14.457031 266.355469 14.460938 266.917969 14.453125 C 267.628906 14.441406 268.25 14.085938 268.25 13.695312 C 268.25 13.507812 268.097656 13.429688 268.015625 13.578125 C 267.925781 13.738281 267.753906 13.730469 267.664062 13.5625 C 267.585938 13.417969 267.824219 13.105469 268.007812 13.105469 C 268.527344 13.105469 268.65625 13.855469 268.203125 14.257812 C 268.066406 14.382812 267.953125 14.503906 267.953125 14.527344 C 267.953125 14.582031 268.488281 14.484375 268.609375 14.410156 C 268.714844 14.34375 268.914062 14.488281 268.914062 14.628906 C 268.914062 14.769531 268.699219 14.824219 268.441406 14.746094 Z M 271.285156 16.5625 C 270.871094 16.726562 270.011719 16.847656 269.800781 16.765625 C 268.710938 16.351562 268.332031 15.433594 269.011719 14.847656 L 269.265625 14.625 L 268.980469 14.300781 C 268.273438 13.503906 268.972656 12.363281 270.167969 12.363281 C 271.269531 12.363281 273.792969 13.96875 273.792969 14.664062 C 273.792969 14.992188 272.199219 16.195312 271.285156 16.5625 Z M 271.285156 16.5625 " fill-opacity="1" fill-rule="nonzero"/><path fill="#000000" d="M 216.460938 13.554688 C 216.714844 12.914062 216.082031 12.375 215.558594 12.785156 C 215.160156 13.097656 215.292969 13.625 215.773438 13.625 C 216.046875 13.625 216.070312 13.4375 215.808594 13.371094 C 215.585938 13.316406 215.5625 13.109375 215.761719 12.929688 C 216.019531 12.695312 216.363281 12.941406 216.363281 13.363281 C 216.363281 13.542969 215.988281 13.921875 215.8125 13.921875 C 214.90625 13.921875 214.859375 12.691406 215.757812 12.441406 C 216.542969 12.222656 217.8125 12.710938 218.652344 13.550781 C 218.671875 13.570312 218.773438 13.636719 218.875 13.695312 C 219.332031 13.957031 219.625 14.070312 219.851562 14.066406 C 220.082031 14.058594 220.078125 14.054688 219.722656 13.925781 C 219.519531 13.851562 219.121094 13.632812 218.835938 13.4375 C 217.234375 12.328125 217.003906 12.214844 216.316406 12.214844 C 215.148438 12.214844 214.464844 13.144531 215.132812 13.816406 C 215.570312 14.253906 216.234375 14.121094 216.460938 13.554688 Z M 216.460938 13.554688 " fill-opacity="1" fill-rule="nonzero"/><path fill="#000000" d="M 261.96875 13.207031 C 261.96875 12.976562 261.738281 13.035156 261.289062 13.386719 C 260.3125 14.148438 259.136719 14.421875 258.441406 14.046875 C 258.3125 13.980469 258.164062 13.921875 258.109375 13.921875 C 257.960938 13.921875 258.246094 14.167969 258.511719 14.273438 C 258.855469 14.40625 259.847656 14.335938 260.359375 14.144531 C 261.132812 13.855469 261.96875 13.367188 261.96875 13.207031 Z M 261.96875 13.207031 " fill-opacity="1" fill-rule="nonzero"/><path fill="#000000" d="M 258.125 14.996094 C 258.003906 15.140625 258.128906 15.144531 258.402344 15.007812 C 258.515625 14.957031 258.734375 14.902344 258.894531 14.894531 C 259.050781 14.886719 259.203125 14.867188 259.226562 14.851562 C 259.546875 14.660156 261.019531 15.308594 261.523438 15.867188 C 261.726562 16.09375 261.855469 16.097656 261.855469 15.882812 C 261.855469 15.078125 258.679688 14.324219 258.125 14.996094 Z M 258.125 14.996094 " fill-opacity="1" fill-rule="nonzero"/><path fill="#000000" d="M 262.203125 14.019531 C 262.335938 13.941406 262.457031 13.824219 262.46875 13.761719 C 262.503906 13.574219 262.257812 13.527344 262.085938 13.6875 C 261.761719 13.980469 261.15625 14.21875 260.742188 14.21875 C 260.605469 14.21875 260.476562 14.25 260.453125 14.292969 C 260.332031 14.484375 261.800781 14.257812 262.203125 14.019531 Z M 262.203125 14.019531 " fill-opacity="1" fill-rule="nonzero"/><path fill="#000000" d="M 262.949219 15.785156 C 262.882812 16.394531 263.511719 16.757812 263.9375 16.355469 C 264.320312 16 264.035156 15.316406 263.601562 15.546875 C 263.398438 15.65625 263.40625 15.691406 263.636719 15.777344 C 263.867188 15.867188 263.859375 16.113281 263.621094 16.273438 C 263.1875 16.558594 262.917969 15.777344 263.316406 15.402344 C 263.886719 14.871094 264.667969 15.773438 264.179688 16.398438 C 263.585938 17.152344 262.644531 16.949219 260.933594 15.703125 C 259.699219 14.808594 259.042969 14.988281 259.808594 15.242188 C 260.164062 15.363281 261.84375 16.59375 261.957031 16.59375 C 261.996094 16.59375 262.039062 16.617188 262.054688 16.648438 C 262.066406 16.679688 262.226562 16.761719 262.410156 16.832031 C 263.375 17.207031 264.550781 16.738281 264.554688 15.976562 C 264.554688 14.914062 263.066406 14.738281 262.949219 15.785156 Z M 262.949219 15.785156 " fill-opacity="1" fill-rule="nonzero"/><g clip-path="url(#cfbbf9a706)"><path fill="#000000" d="M 216.707031 14.816406 C 216.84375 14.753906 217.40625 14.707031 218.375 14.679688 C 219.601562 14.648438 220.445312 14.515625 219.429688 14.515625 C 219.023438 14.515625 218.96875 14.445312 218.339844 14.246094 C 218.105469 14.175781 217.914062 14.085938 217.914062 14.054688 C 217.914062 14.023438 217.867188 13.996094 217.808594 13.996094 C 217.75 13.996094 217.609375 13.894531 217.496094 13.773438 C 217.253906 13.519531 217.257812 13.519531 217.070312 13.660156 C 216.625 14.003906 218.078125 14.347656 218.691406 14.515625 C 218.070312 14.5 216.886719 14.484375 216.640625 14.367188 C 216.488281 14.292969 216.414062 14.289062 216.335938 14.355469 C 216.207031 14.464844 215.089844 14.519531 214.8125 14.539062 L 214.667969 14.210938 C 214.453125 13.730469 214.191406 13.585938 213.578125 13.617188 C 213.410156 13.625 213.300781 13.710938 213.039062 14.042969 C 212.855469 14.277344 212.527344 14.292969 211.949219 14.097656 C 211.476562 13.9375 211.304688 13.699219 211.664062 13.699219 C 211.917969 13.699219 212.039062 13.457031 211.925781 13.179688 C 211.800781 12.878906 211.394531 12.808594 211.089844 13.039062 C 210.875 13.199219 210.859375 13.199219 210.785156 13.070312 C 210.085938 11.859375 208.402344 11.902344 206.738281 13.171875 C 206.070312 13.683594 205.347656 14.382812 205.347656 14.519531 C 205.347656 14.6875 205.609375 14.90625 205.710938 15.019531 C 206.46875 15.839844 207.480469 16.703125 208.5625 16.929688 C 209.59375 17.144531 210.429688 16.871094 210.714844 16.226562 C 210.824219 15.96875 210.863281 15.941406 210.960938 16.019531 C 211.28125 16.269531 211.402344 16.300781 211.632812 16.183594 C 212.042969 15.96875 212.03125 15.332031 211.609375 15.328125 L 211.371094 15.324219 L 211.542969 15.183594 C 211.980469 14.816406 212.929688 14.765625 213.046875 15.105469 C 213.296875 15.828125 214.40625 15.753906 214.695312 14.992188 L 214.828125 14.644531 L 215.503906 14.675781 C 216.644531 14.730469 216.320312 14.996094 216.707031 14.816406 Z M 210.019531 16.660156 C 209.601562 16.882812 208.640625 16.820312 207.988281 16.53125 C 207.0625 16.117188 206.039062 15.164062 205.714844 14.738281 C 205.527344 14.492188 205.515625 14.519531 205.957031 14.085938 C 207.824219 12.265625 209.855469 11.867188 210.582031 13.179688 C 210.964844 13.871094 210.519531 14.234375 210.152344 14.609375 L 210.429688 14.851562 C 210.945312 15.296875 210.71875 16.285156 210.019531 16.660156 Z M 210.5625 14.496094 C 210.613281 14.359375 210.890625 14.320312 211.007812 14.433594 C 211.160156 14.582031 211.652344 14.484375 211.09375 14.671875 C 210.703125 14.804688 210.472656 14.730469 210.5625 14.496094 Z M 214.585938 14.738281 C 214.554688 14.800781 214.488281 14.9375 214.441406 15.042969 C 214.191406 15.582031 213.109375 15.425781 213.109375 14.855469 C 213.109375 14.722656 213.03125 14.710938 212.410156 14.734375 C 211.765625 14.757812 211.1875 15.097656 211.1875 15.449219 C 211.1875 15.65625 211.320312 15.753906 211.378906 15.59375 C 211.4375 15.445312 211.675781 15.445312 211.734375 15.597656 C 211.757812 15.660156 211.742188 15.777344 211.703125 15.855469 C 211.550781 16.140625 211.046875 15.996094 210.933594 15.640625 C 210.867188 15.4375 211.085938 14.980469 211.316406 14.832031 C 211.777344 14.535156 211.8125 14.46875 211.558594 14.378906 C 211.003906 14.183594 210.828125 13.628906 211.183594 13.203125 C 211.433594 12.898438 211.914062 13.191406 211.683594 13.507812 C 211.59375 13.625 211.578125 13.628906 211.488281 13.519531 C 211.34375 13.34375 211.261719 13.378906 211.261719 13.617188 C 211.261719 14.242188 212.867188 14.757812 213.144531 14.21875 C 213.480469 13.570312 214.238281 13.648438 214.53125 14.367188 C 214.589844 14.511719 214.613281 14.679688 214.585938 14.738281 Z M 214.585938 14.738281 " fill-opacity="1" fill-rule="nonzero"/></g><path fill="#000000" d="M 217.027344 15.453125 C 217.027344 15.589844 217.324219 15.570312 217.324219 15.484375 C 217.324219 15.363281 218.09375 15.046875 218.609375 14.957031 C 220.152344 14.6875 217.027344 14.742188 217.027344 15.453125 Z M 217.027344 15.453125 " fill-opacity="1" fill-rule="nonzero"/><path fill="#000000" d="M 217.636719 16.09375 C 217.734375 16.128906 217.84375 16.066406 218.140625 15.796875 C 219.039062 14.984375 220.859375 14.625 221.207031 15.191406 C 221.261719 15.277344 221.460938 15.277344 221.460938 15.191406 C 221.460938 15.089844 220.875 14.839844 220.519531 14.785156 C 219.574219 14.636719 216.929688 15.839844 217.636719 16.09375 Z M 217.636719 16.09375 " fill-opacity="1" fill-rule="nonzero"/><path fill="#000000" d="M 222.71875 14.625 C 222.71875 14.484375 222.582031 14.414062 222.476562 14.503906 C 222.125 14.792969 221.882812 14.472656 221.875 13.710938 C 221.867188 13.039062 221.785156 12.890625 221.605469 13.226562 C 221.324219 13.757812 220.5 13.996094 220.011719 13.691406 C 219.476562 13.363281 219.625 12.527344 220.238281 12.417969 C 220.664062 12.339844 220.9375 12.605469 220.839844 13 C 220.769531 13.277344 220.566406 13.234375 220.621094 12.957031 C 220.667969 12.726562 220.585938 12.675781 220.320312 12.78125 C 220.03125 12.890625 220.242188 13.328125 220.585938 13.328125 C 221.035156 13.328125 221.238281 12.800781 220.914062 12.476562 C 220.257812 11.816406 219.28125 12.542969 219.574219 13.46875 C 219.742188 14.003906 220.855469 14.175781 221.3125 13.734375 L 221.535156 13.523438 L 221.535156 13.757812 C 221.535156 13.90625 221.5 13.996094 221.4375 13.996094 C 221.382812 13.996094 221.226562 14.050781 221.097656 14.117188 C 220.296875 14.515625 218.84375 14.175781 218.046875 13.398438 C 217.769531 13.128906 217.542969 13.058594 217.542969 13.246094 C 217.542969 13.96875 220.242188 14.726562 221.15625 14.261719 L 221.535156 14.066406 L 221.542969 14.570312 C 221.558594 15.640625 221.539062 15.722656 221.292969 15.5 C 220.695312 14.953125 219.621094 15.097656 218.476562 15.882812 C 216.980469 16.914062 215.859375 17.109375 215.292969 16.4375 C 214.769531 15.808594 215.460938 14.90625 216.113281 15.367188 C 216.527344 15.65625 216.265625 16.394531 215.839844 16.128906 C 215.664062 16.015625 215.65625 15.828125 215.816406 15.667969 C 215.976562 15.507812 215.886719 15.433594 215.640625 15.523438 C 215.152344 15.695312 215.3125 16.382812 215.855469 16.429688 C 216.960938 16.523438 216.53125 14.457031 215.347656 15.179688 C 214.667969 15.597656 214.78125 16.445312 215.574219 16.867188 C 216.289062 17.246094 217 17.050781 218.542969 16.039062 C 219.394531 15.480469 219.140625 15.683594 219.605469 15.402344 C 219.902344 15.21875 219.992188 15.265625 219.789062 15.5 C 219.117188 16.261719 219.789062 17.371094 220.652344 16.925781 C 221.121094 16.679688 221.179688 16.054688 220.75 15.859375 C 220.414062 15.707031 219.980469 16.101562 220.21875 16.34375 C 220.378906 16.503906 220.667969 16.382812 220.628906 16.171875 C 220.59375 15.984375 220.625 15.964844 220.789062 16.066406 C 220.859375 16.109375 220.875 16.207031 220.839844 16.378906 C 220.683594 17.171875 219.601562 16.863281 219.710938 16.058594 C 219.828125 15.167969 221.199219 15.152344 221.535156 16.03125 C 221.683594 16.429688 221.832031 16.257812 221.835938 15.683594 C 221.84375 14.9375 222.152344 14.480469 222.464844 14.742188 C 222.578125 14.839844 222.71875 14.773438 222.71875 14.625 Z M 222.71875 14.625 " fill-opacity="1" fill-rule="nonzero"/><path fill="#000000" d="M 213.851562 14.070312 C 213.34375 14.070312 213.117188 14.707031 213.515625 15.023438 C 213.707031 15.171875 213.761719 15.179688 214.046875 15.082031 C 214.507812 14.925781 214.34375 14.070312 213.851562 14.070312 Z M 213.984375 14.566406 C 213.957031 14.703125 213.859375 14.746094 213.714844 14.6875 C 213.640625 14.65625 213.640625 14.625 213.707031 14.542969 C 213.824219 14.402344 214.011719 14.414062 213.984375 14.566406 Z M 213.984375 14.566406 " fill-opacity="1" fill-rule="nonzero"/><path fill="#000000" d="M 222.828125 15.03125 C 222.761719 14.921875 222.496094 14.945312 222.496094 15.058594 C 222.496094 15.113281 222.515625 15.179688 222.542969 15.203125 C 222.613281 15.273438 222.878906 15.113281 222.828125 15.03125 Z M 222.828125 15.03125 " fill-opacity="1" fill-rule="nonzero"/><path fill="#000000" d="M 224.824219 15.027344 C 224.824219 14.972656 224.765625 14.914062 224.695312 14.898438 C 224.566406 14.875 224.515625 15.03125 224.617188 15.132812 C 224.695312 15.210938 224.824219 15.144531 224.824219 15.027344 Z M 224.824219 15.027344 " fill-opacity="1" fill-rule="nonzero"/><path fill="#000000" d="M 209.234375 14.335938 C 209.09375 14.472656 209.085938 14.601562 209.207031 14.722656 C 209.335938 14.851562 209.519531 14.832031 209.667969 14.667969 C 209.894531 14.417969 209.476562 14.09375 209.234375 14.335938 Z M 209.234375 14.335938 " fill-opacity="1" fill-rule="nonzero"/><g clip-path="url(#573ae6866d)"><path fill="#000000" d="M 209.78125 14.921875 C 209.546875 15.207031 208.894531 14.964844 208.894531 14.59375 C 208.894531 14.113281 209.328125 13.921875 209.816406 14.183594 L 210.089844 14.328125 L 210.269531 14.121094 C 210.855469 13.441406 210.082031 12.527344 208.988281 12.609375 C 208.609375 12.636719 208.234375 12.78125 207.890625 12.933594 C 207.304688 13.195312 206.324219 13.757812 205.953125 14.269531 C 205.804688 14.476562 205.789062 14.609375 206.007812 14.871094 C 206.121094 15.003906 206.269531 15.082031 206.394531 15.199219 C 206.503906 15.304688 206.617188 15.40625 206.734375 15.503906 C 208.265625 16.78125 210.007812 16.972656 210.445312 15.820312 C 210.632812 15.328125 210.074219 14.570312 209.78125 14.921875 Z M 210.300781 13.585938 C 210.300781 13.714844 210.234375 13.804688 210.082031 13.882812 C 209.65625 14.101562 209.546875 13.980469 209.871094 13.648438 C 210.152344 13.355469 210.300781 13.335938 210.300781 13.585938 Z M 209.226562 13.570312 C 209.238281 13.417969 209.253906 13.179688 209.257812 13.039062 C 209.265625 12.792969 209.269531 12.789062 209.535156 12.832031 C 209.9375 12.898438 209.949219 12.953125 209.660156 13.421875 C 209.355469 13.925781 209.1875 13.980469 209.226562 13.570312 Z M 208.449219 12.882812 C 208.722656 12.738281 208.792969 12.796875 208.910156 13.273438 C 208.972656 13.527344 209.035156 13.78125 209.050781 13.839844 C 209.097656 14.003906 208.914062 14.019531 208.828125 13.859375 C 208.785156 13.777344 208.707031 13.667969 208.65625 13.613281 C 208.410156 13.351562 208.300781 12.964844 208.449219 12.882812 Z M 207.792969 13.167969 C 207.96875 13.328125 208.214844 13.546875 208.554688 13.875 C 208.894531 14.203125 208.832031 14.339844 208.429688 14.144531 C 208.277344 14.066406 207.9375 13.933594 207.675781 13.847656 C 206.945312 13.601562 207.164062 13.519531 207.792969 13.167969 Z M 205.992188 14.523438 C 206.453125 14.03125 206.390625 13.945312 207.804688 14.269531 C 208.535156 14.4375 209.230469 14.847656 208.582031 14.726562 C 208.53125 14.71875 208.257812 14.75 207.972656 14.800781 C 206.339844 15.082031 206.492188 15.039062 205.992188 14.523438 Z M 207.046875 15.476562 C 207.046875 15.332031 208.578125 14.832031 208.78125 14.910156 C 208.910156 14.960938 208.9375 15.109375 208.820312 15.109375 C 208.777344 15.109375 208.523438 15.292969 208.25 15.515625 C 207.980469 15.742188 207.722656 15.921875 207.679688 15.921875 C 207.574219 15.914062 207.046875 15.546875 207.046875 15.476562 Z M 208.824219 16.214844 C 208.734375 16.382812 208.65625 16.398438 208.398438 16.292969 C 208.164062 16.199219 208.183594 16.125 208.582031 15.585938 C 209.175781 14.777344 209.351562 15.230469 208.824219 16.214844 Z M 209.667969 16.371094 C 209.28125 16.519531 209.222656 16.421875 209.292969 15.753906 C 209.34375 15.269531 209.453125 15.058594 209.527344 15.300781 C 209.554688 15.378906 209.636719 15.578125 209.714844 15.746094 C 209.902344 16.152344 209.894531 16.285156 209.667969 16.371094 Z M 210.324219 15.671875 C 210.261719 15.832031 210.1875 15.800781 209.933594 15.507812 C 209.753906 15.304688 209.71875 15.222656 209.789062 15.175781 C 209.980469 15.0625 210.40625 15.457031 210.324219 15.671875 Z M 210.324219 15.671875 " fill-opacity="1" fill-rule="nonzero"/></g><path fill="#000000" d="M 223.761719 15.597656 C 223.671875 15.539062 223.507812 15.75 223.566406 15.847656 C 223.648438 15.976562 223.828125 15.933594 223.828125 15.78125 C 223.828125 15.703125 223.796875 15.617188 223.761719 15.597656 Z M 223.761719 15.597656 " fill-opacity="1" fill-rule="nonzero"/><path fill="#000000" d="M 222.90625 15.257812 C 222.75 15.257812 222.691406 15.394531 222.792969 15.519531 C 222.84375 15.578125 222.914062 15.609375 222.949219 15.585938 C 223.054688 15.519531 223.023438 15.257812 222.90625 15.257812 Z M 222.90625 15.257812 " fill-opacity="1" fill-rule="nonzero"/><path fill="#000000" d="M 224.417969 15.289062 C 224.417969 15.402344 224.253906 15.554688 224.484375 15.554688 C 224.589844 15.554688 224.640625 15.507812 224.640625 15.40625 C 224.640625 15.199219 224.417969 15.257812 224.417969 15.289062 Z M 224.417969 15.289062 " fill-opacity="1" fill-rule="nonzero"/><path fill="#000000" d="M 224.03125 15.542969 C 223.972656 15.597656 223.980469 15.65625 224.046875 15.734375 C 224.175781 15.890625 224.269531 15.878906 224.269531 15.707031 C 224.269531 15.527344 224.136719 15.4375 224.03125 15.542969 Z M 224.03125 15.542969 " fill-opacity="1" fill-rule="nonzero"/><path fill="#000000" d="M 223.089844 15.003906 C 223.089844 15.109375 223.183594 15.226562 223.347656 15.316406 C 224.144531 15.769531 224.816406 14.765625 224.214844 14.011719 C 223.996094 13.738281 223.421875 13.753906 223.132812 14.042969 C 222.933594 14.242188 222.84375 14.886719 223.015625 14.886719 C 223.054688 14.886719 223.085938 14.734375 223.085938 14.550781 C 223.085938 13.957031 223.773438 13.726562 224.179688 14.183594 C 224.730469 14.816406 223.875 15.648438 223.253906 15.085938 C 223.164062 15.003906 223.089844 14.964844 223.089844 15.003906 Z M 223.089844 15.003906 " fill-opacity="1" fill-rule="nonzero"/><path fill="#000000" d="M 223.121094 15.558594 C 223.09375 15.601562 223.09375 15.683594 223.117188 15.742188 C 223.164062 15.867188 223.382812 15.804688 223.382812 15.664062 C 223.382812 15.542969 223.179688 15.460938 223.121094 15.558594 Z M 223.121094 15.558594 " fill-opacity="1" fill-rule="nonzero"/><path fill="#000000" d="M 223.886719 14.269531 C 223.699219 14.128906 223.675781 14.128906 223.5 14.246094 C 223.222656 14.425781 223.242188 14.871094 223.53125 14.980469 C 224.042969 15.175781 224.328125 14.601562 223.886719 14.269531 Z M 223.886719 14.269531 " fill-opacity="1" fill-rule="nonzero"/><g clip-path="url(#f1b94881b8)"><path fill="#231f20" d="M 186.375 14.125 C 185.300781 14.117188 171.597656 14.050781 170.359375 14.046875 C 167.820312 14.046875 167.695312 14.148438 165.710938 14.171875 C 163.824219 14.191406 162.472656 14.128906 161.433594 14.082031 C 159.675781 14.007812 160.484375 14.039062 157.679688 14.074219 C 153.214844 14.125 148.71875 14.050781 144.351562 14.023438 C 142.378906 14.011719 140.308594 14 138.421875 14.027344 C 136.539062 14.050781 134.976562 14.125 135.582031 14.195312 C 135.492188 14.117188 133.519531 14.050781 131.375 14.050781 C 128.808594 14.054688 123.117188 14.109375 122.199219 14.183594 C 122.570312 14.152344 113.210938 14.136719 111.539062 14.125 C 109.339844 14.113281 107.734375 14.058594 104.769531 14.035156 C 100.484375 14 91.460938 14.164062 86.667969 14.144531 C 78.765625 14.109375 75.707031 14.011719 67.886719 14.066406 C 52.191406 14.179688 47.617188 13.828125 40.449219 14.113281 C 39.964844 14.101562 39.703125 14.078125 39.222656 14.066406 C 37.667969 14.019531 35.5625 14.011719 33.664062 14.003906 C 28.453125 13.988281 26.164062 14.054688 20.683594 14.066406 C 20.785156 14.324219 14.179688 14.175781 12.558594 14.378906 C 11.8125 14.472656 15.71875 14.746094 14.972656 14.839844 C 15.664062 14.960938 20.152344 14.984375 19.667969 15.117188 C 24.753906 15.113281 25.578125 15.179688 30.394531 15.148438 C 34.328125 15.125 38.265625 15.101562 42.226562 15.082031 C 45.765625 15.066406 47.578125 15.140625 51.136719 15.136719 C 55.605469 15.132812 61.824219 15.050781 66.292969 15.054688 C 69.25 15.058594 72.238281 15.054688 75.1875 15.0625 C 77.675781 15.066406 82.515625 15.136719 84.074219 15.136719 C 88.511719 15.125 93.761719 14.902344 98.324219 15.058594 C 99.222656 15.089844 99.867188 15.128906 100.839844 15.160156 C 102.257812 15.199219 106.585938 15.152344 108.40625 15.152344 C 109.898438 15.148438 111.390625 15.148438 112.886719 15.148438 C 116.851562 15.144531 121.660156 15.160156 123.363281 15.289062 C 125.195312 15.1875 127.023438 15.089844 128.847656 14.988281 C 128.179688 15.097656 130.417969 15.214844 133.417969 15.230469 C 136.414062 15.246094 139.527344 15.152344 139.757812 15.042969 C 142.347656 15.09375 146.570312 15.21875 149.449219 15.230469 C 149.515625 15.230469 157.839844 15.210938 155.402344 15.148438 C 157.175781 15.191406 157.046875 15.085938 158.492188 15.15625 C 160.617188 15.257812 165.765625 15.023438 168.390625 15.136719 C 170.558594 15.234375 178.613281 15.121094 182.097656 15.019531 C 189.726562 14.804688 196.710938 14.1875 186.375 14.125 " fill-opacity="1" fill-rule="nonzero"/></g><g clip-path="url(#3c7e08bfb9)"><path fill="#231f20" d="M 458.316406 14.125 C 457.242188 14.117188 443.539062 14.050781 442.300781 14.046875 C 439.761719 14.046875 439.636719 14.148438 437.652344 14.171875 C 435.765625 14.191406 434.414062 14.128906 433.375 14.082031 C 431.617188 14.007812 432.425781 14.039062 429.621094 14.074219 C 425.15625 14.125 420.660156 14.050781 416.289062 14.023438 C 414.320312 14.011719 412.25 14 410.363281 14.027344 C 408.476562 14.050781 406.917969 14.125 407.523438 14.195312 C 407.433594 14.117188 405.460938 14.050781 403.316406 14.050781 C 400.75 14.054688 395.058594 14.109375 394.140625 14.183594 C 394.511719 14.152344 385.152344 14.136719 383.480469 14.125 C 381.28125 14.113281 379.675781 14.058594 376.710938 14.035156 C 372.425781 14 363.402344 14.164062 358.609375 14.144531 C 350.707031 14.109375 347.648438 14.011719 339.828125 14.066406 C 324.132812 14.179688 319.554688 13.828125 312.390625 14.113281 C 311.90625 14.101562 311.644531 14.078125 311.160156 14.066406 C 309.609375 14.019531 307.503906 14.011719 305.605469 14.003906 C 300.394531 13.988281 298.101562 14.054688 292.625 14.066406 C 292.726562 14.324219 286.117188 14.175781 284.5 14.378906 C 283.753906 14.472656 287.660156 14.746094 286.914062 14.839844 C 287.605469 14.960938 292.089844 14.984375 291.605469 15.117188 C 296.695312 15.113281 297.519531 15.179688 302.335938 15.148438 C 306.269531 15.125 310.207031 15.101562 314.167969 15.082031 C 317.707031 15.066406 319.515625 15.140625 323.078125 15.136719 C 327.546875 15.132812 333.765625 15.050781 338.234375 15.054688 C 341.191406 15.058594 344.179688 15.054688 347.128906 15.0625 C 349.617188 15.066406 354.453125 15.136719 356.015625 15.136719 C 360.449219 15.125 365.703125 14.902344 370.261719 15.058594 C 371.164062 15.089844 371.808594 15.128906 372.78125 15.160156 C 374.199219 15.199219 378.523438 15.152344 380.34375 15.152344 C 381.839844 15.148438 383.332031 15.148438 384.828125 15.148438 C 388.789062 15.144531 393.601562 15.160156 395.304688 15.289062 C 397.136719 15.1875 398.960938 15.089844 400.789062 14.988281 C 400.121094 15.097656 402.359375 15.214844 405.359375 15.230469 C 408.355469 15.246094 411.46875 15.152344 411.699219 15.042969 C 414.289062 15.09375 418.511719 15.21875 421.390625 15.230469 C 421.457031 15.230469 429.777344 15.210938 427.34375 15.148438 C 429.117188 15.191406 428.988281 15.085938 430.433594 15.15625 C 432.558594 15.257812 437.703125 15.023438 440.332031 15.136719 C 442.5 15.234375 450.550781 15.121094 454.035156 15.019531 C 461.667969 14.804688 468.652344 14.1875 458.316406 14.125 " fill-opacity="1" fill-rule="nonzero"/></g></svg>