<svg xmlns="http://www.w3.org/2000/svg" xmlns:xlink="http://www.w3.org/1999/xlink" width="644" zoomAndPan="magnify" viewBox="0 0 482.87997 30.000001" height="40" preserveAspectRatio="xMidYMid meet" version="1.0"><defs><clipPath id="67c0f1450b"><path d="M 235 8.710938 L 248 8.710938 L 248 20.324219 L 235 20.324219 Z M 235 8.710938 " clip-rule="nonzero"/></clipPath><clipPath id="5010509399"><path d="M 201.046875 10 L 207 10 L 207 17 L 201.046875 17 Z M 201.046875 10 " clip-rule="nonzero"/></clipPath><clipPath id="175a46108f"><path d="M 224 8.710938 L 234 8.710938 L 234 19 L 224 19 Z M 224 8.710938 " clip-rule="nonzero"/></clipPath><clipPath id="b242c582b7"><path d="M 249 8.710938 L 259 8.710938 L 259 19 L 249 19 Z M 249 8.710938 " clip-rule="nonzero"/></clipPath><clipPath id="9abce0ce14"><path d="M 275 10 L 281.613281 10 L 281.613281 17 L 275 17 Z M 275 10 " clip-rule="nonzero"/></clipPath></defs><g clip-path="url(#67c0f1450b)"><path fill="#000000" d="M 245.167969 18.367188 L 243.246094 18.367188 L 243.246094 20.289062 L 239.410156 20.289062 L 239.410156 18.367188 L 237.492188 18.367188 L 237.492188 16.445312 L 235.574219 16.445312 L 235.574219 12.597656 L 237.492188 12.597656 L 237.492188 10.671875 L 239.410156 10.671875 L 239.410156 8.75 L 243.246094 8.75 L 243.246094 10.671875 L 245.164062 10.671875 L 245.164062 12.597656 L 247.085938 12.597656 L 247.085938 16.445312 L 245.167969 16.445312 Z M 243.246094 14.519531 L 243.246094 12.597656 L 239.410156 12.597656 L 239.410156 16.445312 L 243.246094 16.445312 Z M 243.246094 14.519531 " fill-opacity="1" fill-rule="nonzero"/></g><g clip-path="url(#5010509399)"><path fill="#000000" d="M 204.882812 16.445312 L 202.964844 16.445312 L 202.964844 14.519531 L 201.050781 14.519531 L 201.050781 12.597656 L 202.964844 12.597656 L 202.964844 10.671875 L 204.882812 10.671875 L 204.882812 12.597656 L 206.804688 12.597656 L 206.804688 14.519531 L 204.882812 14.519531 Z M 204.882812 16.445312 " fill-opacity="1" fill-rule="nonzero"/></g><path fill="#000000" d="M 212.558594 16.445312 L 210.640625 16.445312 L 210.640625 14.519531 L 208.722656 14.519531 L 208.722656 12.597656 L 210.640625 12.597656 L 210.640625 10.671875 L 212.558594 10.671875 L 212.558594 12.597656 L 214.476562 12.597656 L 214.476562 14.519531 L 212.558594 14.519531 Z M 212.558594 16.445312 " fill-opacity="1" fill-rule="nonzero"/><path fill="#000000" d="M 220.230469 16.445312 L 218.3125 16.445312 L 218.3125 14.519531 L 216.394531 14.519531 L 216.394531 12.597656 L 218.3125 12.597656 L 218.3125 10.671875 L 220.230469 10.671875 L 220.230469 12.597656 L 222.148438 12.597656 L 222.148438 14.519531 L 220.230469 14.519531 Z M 220.230469 16.445312 " fill-opacity="1" fill-rule="nonzero"/><g clip-path="url(#175a46108f)"><path fill="#000000" d="M 231.738281 16.445312 L 229.820312 16.445312 L 229.820312 18.367188 L 227.902344 18.367188 L 227.902344 16.445312 L 225.984375 16.445312 L 225.984375 14.519531 L 224.066406 14.519531 L 224.066406 12.597656 L 225.984375 12.597656 L 225.984375 10.671875 L 227.902344 10.671875 L 227.902344 8.75 L 229.820312 8.75 L 229.820312 10.671875 L 231.738281 10.671875 L 231.738281 12.597656 L 233.65625 12.597656 L 233.65625 14.519531 L 231.738281 14.519531 Z M 229.820312 12.597656 L 227.902344 12.597656 L 227.902344 14.519531 L 229.820312 14.519531 Z M 229.820312 12.597656 " fill-opacity="1" fill-rule="nonzero"/></g><g clip-path="url(#b242c582b7)"><path fill="#000000" d="M 256.675781 16.445312 L 254.757812 16.445312 L 254.757812 18.367188 L 252.839844 18.367188 L 252.839844 16.445312 L 250.917969 16.445312 L 250.917969 14.519531 L 249.003906 14.519531 L 249.003906 12.597656 L 250.917969 12.597656 L 250.917969 10.671875 L 252.839844 10.671875 L 252.839844 8.75 L 254.757812 8.75 L 254.757812 10.671875 L 256.675781 10.671875 L 256.675781 12.597656 L 258.59375 12.597656 L 258.59375 14.519531 L 256.675781 14.519531 Z M 254.757812 12.597656 L 252.839844 12.597656 L 252.839844 14.519531 L 254.757812 14.519531 Z M 254.757812 12.597656 " fill-opacity="1" fill-rule="nonzero"/></g><path fill="#000000" d="M 264.347656 16.445312 L 262.429688 16.445312 L 262.429688 14.519531 L 260.511719 14.519531 L 260.511719 12.597656 L 262.429688 12.597656 L 262.429688 10.671875 L 264.347656 10.671875 L 264.347656 12.597656 L 266.265625 12.597656 L 266.265625 14.519531 L 264.347656 14.519531 Z M 264.347656 16.445312 " fill-opacity="1" fill-rule="nonzero"/><path fill="#000000" d="M 272.019531 16.445312 L 270.101562 16.445312 L 270.101562 14.519531 L 268.183594 14.519531 L 268.183594 12.597656 L 270.101562 12.597656 L 270.101562 10.671875 L 272.019531 10.671875 L 272.019531 12.597656 L 273.9375 12.597656 L 273.9375 14.519531 L 272.019531 14.519531 Z M 272.019531 16.445312 " fill-opacity="1" fill-rule="nonzero"/><g clip-path="url(#9abce0ce14)"><path fill="#000000" d="M 279.691406 14.519531 L 279.691406 16.445312 L 277.773438 16.445312 L 277.773438 14.519531 L 275.855469 14.519531 L 275.855469 12.597656 L 277.773438 12.597656 L 277.773438 10.671875 L 279.691406 10.671875 L 279.691406 12.597656 L 281.609375 12.597656 L 281.609375 14.519531 Z M 279.691406 14.519531 " fill-opacity="1" fill-rule="nonzero"/></g></svg>